 <?xml version="1.0" encoding="UTF-8"?>
<!DOCTYPE svg PUBLIC "-//W3C//DTD SVG 1.1//EN" "http://www.w3.org/Graphics/SVG/1.1/DTD/svg11.dtd">
<svg xmlns="http://www.w3.org/2000/svg" version="1.1" width="3264px" height="3264px" style="shape-rendering:geometricPrecision; text-rendering:geometricPrecision; image-rendering:optimizeQuality; fill-rule:evenodd; clip-rule:evenodd" xmlns:xlink="http://www.w3.org/1999/xlink">
<g><path style="opacity:0.004" fill="#fe0200" d="M 2021.5,916.5 C 1765.14,916.503 1508.81,916.503 1252.5,916.5C 1508.8,915.167 1765.14,915.167 2021.5,916.5 Z"/></g>
<g><path style="opacity:0.031" fill="#de4301" d="M 2029.5,917.5 C 2033.33,919.827 2037.5,921.493 2042,922.5C 2042.62,924.116 2043.62,925.449 2045,926.5C 2046.87,931.561 2048.71,936.561 2050.5,941.5C 2049.53,940.365 2048.36,939.365 2047,938.5C 2045.23,931.165 2041.4,926.332 2035.5,924C 2035.83,923.667 2036.17,923.333 2036.5,923C 2033.25,922.23 2030.92,920.396 2029.5,917.5 Z"/></g>
<g><path style="opacity:0.37" fill="#ea7706" d="M 1248.5,916.5 C 1247.82,918.185 1246.48,919.185 1244.5,919.5C 1243.22,922.114 1242.55,924.614 1242.5,927C 1240.5,927.667 1238.5,928.333 1236.5,929C 1235.37,931.717 1233.87,934.217 1232,936.5C 1230.68,935.12 1229.34,934.786 1228,935.5C 1227.31,937.555 1226.15,939.221 1224.5,940.5C 1223.45,944.112 1222.62,947.779 1222,951.5C 1221.54,950.906 1221.37,950.239 1221.5,949.5C 1220.38,942.811 1222.04,937.145 1226.5,932.5C 1229.04,931.885 1231.54,931.218 1234,930.5C 1234.45,921.218 1239.28,916.552 1248.5,916.5 Z"/></g>
<g><path style="opacity:0.016" fill="#ff67ff" d="M 1220.5,952.5 C 1221.17,953.833 1221.83,955.167 1222.5,956.5C 1222.23,958.099 1222.57,959.432 1223.5,960.5C 1223.5,1207.17 1223.5,1453.83 1223.5,1700.5C 1221.88,1703.17 1221.22,1706.17 1221.5,1709.5C 1220.5,1457.33 1220.17,1205 1220.5,952.5 Z"/></g>
<g><path style="opacity:0.519" fill="#ea8e1a" d="M 1248.5,916.5 C 1249.83,916.5 1251.17,916.5 1252.5,916.5C 1508.81,916.503 1765.14,916.503 2021.5,916.5C 2024.17,916.833 2026.83,917.167 2029.5,917.5C 2030.92,920.396 2033.25,922.23 2036.5,923C 2036.17,923.333 2035.83,923.667 2035.5,924C 2041.4,926.332 2045.23,931.165 2047,938.5C 2048.36,939.365 2049.53,940.365 2050.5,941.5C 2050.5,1201.5 2050.5,1461.5 2050.5,1721.5C 2049.07,1722.08 2047.74,1722.92 2046.5,1724C 2047.15,1725.61 2046.65,1727.11 2045,1728.5C 2044.67,1728.17 2044.33,1727.83 2044,1727.5C 2042.93,1728.19 2041.77,1728.69 2040.5,1729C 2041.34,1730.67 2040.84,1730.83 2039,1729.5C 2034.35,1732.35 2034.52,1734.69 2039.5,1736.5C 2036.15,1739.34 2032.82,1742.51 2029.5,1746C 2024.12,1746.26 2018.78,1746.76 2013.5,1747.5C 2012.34,1746.73 2011.34,1745.73 2010.5,1744.5C 2011.03,1743.81 2011.69,1743.31 2012.5,1743C 2011.87,1742.25 2011.37,1741.42 2011,1740.5C 2007.84,1740.81 2004.5,1741.48 2001,1742.5C 1997.53,1741.8 1994.03,1741.13 1990.5,1740.5C 1989.67,1741.41 1988.67,1742.08 1987.5,1742.5C 1976.62,1741.2 1965.78,1741.2 1955,1742.5C 1954.54,1741.26 1955.04,1740.42 1956.5,1740C 1951.5,1739.33 1946.5,1739.33 1941.5,1740C 1941.83,1740.33 1942.17,1740.67 1942.5,1741C 1912.64,1741.93 1882.81,1741.43 1853,1739.5C 1848.5,1739.67 1844,1739.83 1839.5,1740C 1847.5,1740.33 1855.5,1740.67 1863.5,1741C 1848.5,1741.67 1833.5,1741.67 1818.5,1741C 1818.83,1740.67 1819.17,1740.33 1819.5,1740C 1817.5,1739.83 1815.5,1739.67 1813.5,1739.5C 1799.34,1742.14 1785.17,1742.14 1771,1739.5C 1768.83,1739.67 1766.67,1739.83 1764.5,1740C 1767.83,1740.33 1771.17,1740.67 1774.5,1741C 1766.36,1741.07 1759.69,1741.9 1754.5,1743.5C 1752.17,1743.33 1749.83,1743.17 1747.5,1743C 1750.12,1742.09 1749.95,1741.59 1747,1741.5C 1745.89,1741.59 1744.89,1741.92 1744,1742.5C 1743.38,1741.55 1743.55,1740.72 1744.5,1740C 1740.83,1739.33 1737.17,1739.33 1733.5,1740C 1736.5,1740.33 1739.5,1740.67 1742.5,1741C 1610.16,1741.19 1477.83,1741.69 1345.5,1742.5C 1327,1741.9 1308.5,1741.56 1290,1741.5C 1281.48,1741.89 1272.98,1742.56 1264.5,1743.5C 1264.71,1744.09 1265.04,1744.59 1265.5,1745C 1264.14,1745.93 1262.81,1746.77 1261.5,1747.5C 1258.57,1746.7 1255.57,1746.37 1252.5,1746.5C 1252.5,1745.5 1252.5,1744.5 1252.5,1743.5C 1249.17,1743.5 1245.83,1743.5 1242.5,1743.5C 1239.74,1743.26 1237.57,1741.92 1236,1739.5C 1235.7,1737.11 1234.86,1734.94 1233.5,1733C 1232.55,1732.52 1231.55,1732.35 1230.5,1732.5C 1229.05,1731.18 1229.38,1730.34 1231.5,1730C 1230.69,1728.29 1229.36,1727.46 1227.5,1727.5C 1226.99,1724.55 1226.99,1721.72 1227.5,1719C 1225.87,1718.51 1224.2,1718.34 1222.5,1718.5C 1222.74,1719.79 1222.4,1720.79 1221.5,1721.5C 1221.5,1719.83 1221.5,1718.17 1221.5,1716.5C 1222.59,1712.73 1224.25,1709.9 1226.5,1708C 1225.25,1705.79 1225.42,1703.62 1227,1701.5C 1227.33,1459.83 1227.67,1218.17 1228,976.5C 1228.26,973.443 1228.76,970.443 1229.5,967.5C 1228.75,964.223 1228.25,960.89 1228,957.5C 1227.58,961.852 1226.91,962.185 1226,958.5C 1225,957.5 1224,956.5 1223,955.5C 1222.6,955.728 1222.43,956.062 1222.5,956.5C 1221.83,955.167 1221.17,953.833 1220.5,952.5C 1220.26,951.209 1220.6,950.209 1221.5,949.5C 1221.37,950.239 1221.54,950.906 1222,951.5C 1222.62,947.779 1223.45,944.112 1224.5,940.5C 1226.15,939.221 1227.31,937.555 1228,935.5C 1229.34,934.786 1230.68,935.12 1232,936.5C 1233.87,934.217 1235.37,931.717 1236.5,929C 1238.5,928.333 1240.5,927.667 1242.5,927C 1242.55,924.614 1243.22,922.114 1244.5,919.5C 1246.48,919.185 1247.82,918.185 1248.5,916.5 Z"/></g>
<g><path style="opacity:0.997" fill="#ea9322" d="M 1253.5,923.5 C 1254.22,923.918 1254.72,924.584 1255,925.5C 1510.12,924.832 1765.28,924.165 2020.5,923.5C 2024.75,925.748 2028.75,928.414 2032.5,931.5C 2033.3,933.132 2034.3,934.632 2035.5,936C 2035.09,936.945 2034.43,937.612 2033.5,938C 2035.71,939.273 2038.05,940.273 2040.5,941C 2040.17,941.333 2039.83,941.667 2039.5,942C 2042.44,943.459 2042.78,945.126 2040.5,947C 2042.86,948.837 2043.53,951.004 2042.5,953.5C 2042.9,955.197 2043.4,956.863 2044,958.5C 2044.17,1197.01 2044.67,1435.51 2045.5,1674C 2044.33,1681.18 2044.33,1688.35 2045.5,1695.5C 2044.92,1700.06 2044.25,1704.56 2043.5,1709C 2046.26,1710.54 2046.1,1711.71 2043,1712.5C 2042.28,1714.11 2042.45,1715.61 2043.5,1717C 2041.43,1717.32 2041.1,1718.16 2042.5,1719.5C 2041,1721.17 2039.5,1722.83 2038,1724.5C 2037.67,1723.83 2037.33,1723.17 2037,1722.5C 2036.89,1725.45 2035.39,1726.78 2032.5,1726.5C 2031.41,1732.15 2027.91,1734.81 2022,1734.5C 2019.91,1733.75 2017.91,1733.42 2016,1733.5C 2015.09,1734.33 2014.42,1735.33 2014,1736.5C 2012.03,1736.37 2009.86,1736.21 2007.5,1736C 2008.17,1735.67 2008.83,1735.33 2009.5,1735C 2007.64,1734.58 2005.81,1734.08 2004,1733.5C 1763.88,1734.47 1523.72,1734.47 1283.5,1733.5C 1279.58,1733.7 1279.58,1734.2 1283.5,1735C 1277.83,1735.33 1272.17,1735.67 1266.5,1736C 1265.23,1736.31 1264.07,1736.81 1263,1737.5C 1261.36,1736.17 1260.53,1734.83 1260.5,1733.5C 1259.52,1733.98 1258.69,1734.64 1258,1735.5C 1256.67,1735.5 1255.33,1735.5 1254,1735.5C 1253.09,1734.67 1252.42,1733.67 1252,1732.5C 1249.86,1733.77 1247.69,1733.77 1245.5,1732.5C 1243.66,1731.16 1242.16,1729.49 1241,1727.5C 1240.67,1728.17 1240.33,1728.83 1240,1729.5C 1239.79,1726.58 1238.29,1724.74 1235.5,1724C 1237.25,1721.26 1236.25,1719.26 1232.5,1718C 1232.67,1716.88 1233,1715.72 1233.5,1714.5C 1231.01,1713.46 1231.01,1712.63 1233.5,1712C 1230.97,1710.98 1230.97,1709.82 1233.5,1708.5C 1232.83,1707.5 1232.17,1706.5 1231.5,1705.5C 1232.67,1459.21 1232.83,1212.87 1232,966.5C 1231.67,967.833 1231.33,969.167 1231,970.5C 1230.33,966.5 1230.33,962.5 1231,958.5C 1234.18,956.094 1235.02,953.094 1233.5,949.5C 1235.5,946.155 1235.5,942.988 1233.5,940C 1234.01,938.174 1234.84,938.007 1236,939.5C 1236.91,938.672 1237.58,937.672 1238,936.5C 1239,937.833 1240,937.833 1241,936.5C 1241.31,935.258 1240.81,934.258 1239.5,933.5C 1240.31,929.932 1242.31,928.766 1245.5,930C 1245.17,929.667 1244.83,929.333 1244.5,929C 1246.39,928.027 1248.39,927.36 1250.5,927C 1249.83,926.667 1249.17,926.333 1248.5,926C 1250.17,925.015 1251.84,924.181 1253.5,923.5 Z"/></g>
<g><path style="opacity:0.09" fill="#f07c15" d="M 1223.5,960.5 C 1224.33,965.651 1224.83,970.984 1225,976.5C 1225.67,1218.17 1225.67,1459.83 1225,1701.5C 1224.62,1700.94 1224.12,1700.61 1223.5,1700.5C 1223.5,1453.83 1223.5,1207.17 1223.5,960.5 Z"/></g>
<g><path style="opacity:0.133" fill="#ef8818" d="M 1221.5,1716.5 C 1221.5,1714.17 1221.5,1711.83 1221.5,1709.5C 1221.22,1706.17 1221.88,1703.17 1223.5,1700.5C 1224.12,1700.61 1224.62,1700.94 1225,1701.5C 1225.67,1459.83 1225.67,1218.17 1225,976.5C 1224.83,970.984 1224.33,965.651 1223.5,960.5C 1222.57,959.432 1222.23,958.099 1222.5,956.5C 1222.43,956.062 1222.6,955.728 1223,955.5C 1224,956.5 1225,957.5 1226,958.5C 1226.91,962.185 1227.58,961.852 1228,957.5C 1228.25,960.89 1228.75,964.223 1229.5,967.5C 1228.76,970.443 1228.26,973.443 1228,976.5C 1227.67,1218.17 1227.33,1459.83 1227,1701.5C 1225.42,1703.62 1225.25,1705.79 1226.5,1708C 1224.25,1709.9 1222.59,1712.73 1221.5,1716.5 Z"/></g>
<g><path style="opacity:1" fill="#eda346" d="M 1655.5,1021.5 C 1665.51,1021.33 1675.51,1021.5 1685.5,1022C 1689.3,1022.81 1692.8,1024.31 1696,1026.5C 1697.64,1061.79 1697.97,1097.12 1697,1132.5C 1696.27,1136.14 1694.44,1138.98 1691.5,1141C 1679.5,1141.67 1667.5,1141.67 1655.5,1141C 1652.96,1139.25 1650.46,1137.42 1648,1135.5C 1646.37,1100.54 1646.03,1065.54 1647,1030.5C 1647.33,1029.17 1647.67,1027.83 1648,1026.5C 1650.43,1024.55 1652.93,1022.88 1655.5,1021.5 Z"/></g>
<g><path style="opacity:1" fill="#f3c78e" d="M 1581.5,1024.5 C 1591.17,1024.33 1600.84,1024.5 1610.5,1025C 1613.62,1025.48 1616.46,1026.65 1619,1028.5C 1620.65,1061.77 1620.98,1095.11 1620,1128.5C 1619.62,1133.88 1616.79,1137.04 1611.5,1138C 1601.5,1138.67 1591.5,1138.67 1581.5,1138C 1578.35,1137.54 1576.68,1135.7 1576.5,1132.5C 1575.5,1097.67 1575.17,1062.67 1575.5,1027.5C 1577.29,1026.12 1579.29,1025.12 1581.5,1024.5 Z"/></g>
<g><path style="opacity:1" fill="#eca03d" d="M 1620.5,1134.5 C 1620.37,1132.35 1620.87,1130.35 1622,1128.5C 1622.67,1096.17 1622.67,1063.83 1622,1031.5C 1620.94,1028.44 1619.1,1025.94 1616.5,1024C 1604.66,1023.17 1592.99,1023.34 1581.5,1024.5C 1579.29,1025.12 1577.29,1026.12 1575.5,1027.5C 1574.88,1027.61 1574.38,1027.94 1574,1028.5C 1573.33,1063.5 1573.33,1098.5 1574,1133.5C 1575.88,1137.47 1579.05,1139.64 1583.5,1140C 1595.28,1141.03 1606.95,1140.53 1618.5,1138.5C 1617.94,1139.79 1616.94,1140.62 1615.5,1141C 1603.17,1141.67 1590.83,1141.67 1578.5,1141C 1576.81,1139.59 1574.98,1138.43 1573,1137.5C 1572.33,1100.83 1572.33,1064.17 1573,1027.5C 1574.84,1026.33 1576,1024.66 1576.5,1022.5C 1591.06,1021.18 1605.56,1021.18 1620,1022.5C 1620.54,1025.36 1621.54,1028.03 1623,1030.5C 1623.67,1063.5 1623.67,1096.5 1623,1129.5C 1622.63,1131.49 1621.79,1133.16 1620.5,1134.5 Z"/></g>
<g><path style="opacity:1" fill="#f5cf9f" d="M 1691.5,1026.5 C 1691.78,1027.29 1692.28,1027.96 1693,1028.5C 1693.67,1062.5 1693.67,1096.5 1693,1130.5C 1691.83,1132.33 1690.67,1134.17 1689.5,1136C 1678.51,1136.5 1667.51,1136.67 1656.5,1136.5C 1654.28,1136.39 1652.28,1135.72 1650.5,1134.5C 1650.33,1099.5 1650.5,1064.5 1651,1029.5C 1651.72,1028.96 1652.22,1028.29 1652.5,1027.5C 1652.95,1026.54 1653.62,1025.71 1654.5,1025C 1666.17,1024.33 1677.83,1024.33 1689.5,1025C 1690.42,1025.28 1691.08,1025.78 1691.5,1026.5 Z"/></g>
<g><path style="opacity:1" fill="#fbf1e5" d="M 1656.5,1027.5 C 1666.51,1027.33 1676.51,1027.5 1686.5,1028C 1688.32,1028.2 1689.65,1029.03 1690.5,1030.5C 1690.83,1063.17 1690.5,1095.84 1689.5,1128.5C 1687.97,1129.86 1686.3,1131.03 1684.5,1132C 1676.17,1132.67 1667.83,1132.67 1659.5,1132C 1656.67,1131.17 1654.83,1129.33 1654,1126.5C 1653.33,1094.5 1653.33,1062.5 1654,1030.5C 1655.04,1029.63 1655.88,1028.63 1656.5,1027.5 Z"/></g>
<g><path style="opacity:1" fill="#eeac57" d="M 1581.5,1024.5 C 1592.99,1023.34 1604.66,1023.17 1616.5,1024C 1619.1,1025.94 1620.94,1028.44 1622,1031.5C 1622.67,1063.83 1622.67,1096.17 1622,1128.5C 1620.87,1130.35 1620.37,1132.35 1620.5,1134.5C 1620.77,1136.38 1620.1,1137.71 1618.5,1138.5C 1606.95,1140.53 1595.28,1141.03 1583.5,1140C 1579.05,1139.64 1575.88,1137.47 1574,1133.5C 1573.33,1098.5 1573.33,1063.5 1574,1028.5C 1574.38,1027.94 1574.88,1027.61 1575.5,1027.5C 1575.17,1062.67 1575.5,1097.67 1576.5,1132.5C 1576.68,1135.7 1578.35,1137.54 1581.5,1138C 1591.5,1138.67 1601.5,1138.67 1611.5,1138C 1616.79,1137.04 1619.62,1133.88 1620,1128.5C 1620.98,1095.11 1620.65,1061.77 1619,1028.5C 1616.46,1026.65 1613.62,1025.48 1610.5,1025C 1600.84,1024.5 1591.17,1024.33 1581.5,1024.5 Z"/></g>
<g><path style="opacity:1" fill="#f8e0c1" d="M 1610.5,1027.5 C 1600.83,1027.33 1591.16,1027.5 1581.5,1028C 1580.67,1028.83 1579.83,1029.67 1579,1030.5C 1578.33,1063.83 1578.33,1097.17 1579,1130.5C 1579.39,1131.43 1580.05,1132.09 1581,1132.5C 1592.19,1133.94 1603.36,1133.77 1614.5,1132C 1615.13,1131.25 1615.63,1130.42 1616,1129.5C 1616.67,1097.17 1616.67,1064.83 1616,1032.5C 1615.49,1031.47 1614.99,1030.47 1614.5,1029.5C 1616.02,1029.51 1617.18,1030.18 1618,1031.5C 1618.67,1063.83 1618.67,1096.17 1618,1128.5C 1617.14,1132.03 1614.97,1134.19 1611.5,1135C 1601.83,1135.67 1592.17,1135.67 1582.5,1135C 1580.34,1134.42 1578.34,1133.58 1576.5,1132.5C 1576.33,1097.83 1576.5,1063.17 1577,1028.5C 1577.5,1028 1578,1027.5 1578.5,1027C 1589.34,1026.17 1600.01,1026.34 1610.5,1027.5 Z"/></g>
<g><path style="opacity:1" fill="#f2bd7b" d="M 1652.5,1027.5 C 1652.22,1028.29 1651.72,1028.96 1651,1029.5C 1650.5,1064.5 1650.33,1099.5 1650.5,1134.5C 1649.17,1117.51 1648.5,1100.18 1648.5,1082.5C 1648.67,1065.17 1648.83,1047.83 1649,1030.5C 1649.42,1028.57 1650.59,1027.57 1652.5,1027.5 Z"/></g>
<g><path style="opacity:1" fill="#f1bc79" d="M 1691.5,1026.5 C 1692.82,1026.33 1693.99,1026.66 1695,1027.5C 1695.67,1062.5 1695.67,1097.5 1695,1132.5C 1693.52,1135.66 1691.02,1137.5 1687.5,1138C 1677.83,1138.67 1668.17,1138.67 1658.5,1138C 1657.58,1137.72 1656.92,1137.22 1656.5,1136.5C 1667.51,1136.67 1678.51,1136.5 1689.5,1136C 1690.67,1134.17 1691.83,1132.33 1693,1130.5C 1693.67,1096.5 1693.67,1062.5 1693,1028.5C 1692.28,1027.96 1691.78,1027.29 1691.5,1026.5 Z"/></g>
<g><path style="opacity:1" fill="#f8e3c8" d="M 1656.5,1027.5 C 1655.88,1028.63 1655.04,1029.63 1654,1030.5C 1653.33,1062.5 1653.33,1094.5 1654,1126.5C 1654.83,1129.33 1656.67,1131.17 1659.5,1132C 1667.83,1132.67 1676.17,1132.67 1684.5,1132C 1686.3,1131.03 1687.97,1129.86 1689.5,1128.5C 1690.5,1095.84 1690.83,1063.17 1690.5,1030.5C 1691.12,1030.61 1691.62,1030.94 1692,1031.5C 1692.67,1063.83 1692.67,1096.17 1692,1128.5C 1691.17,1132 1689,1134.17 1685.5,1135C 1675.83,1135.67 1666.17,1135.67 1656.5,1135C 1655.03,1134.36 1653.7,1133.53 1652.5,1132.5C 1651.33,1098.5 1651.17,1064.5 1652,1030.5C 1653.13,1028.86 1654.63,1027.86 1656.5,1027.5 Z"/></g>
<g><path style="opacity:1" fill="#fefdfd" d="M 1657.5,1030.5 C 1667.17,1030.5 1676.83,1030.5 1686.5,1030.5C 1687.6,1061.82 1687.77,1093.15 1687,1124.5C 1686.22,1126.29 1685.05,1127.79 1683.5,1129C 1675.5,1129.67 1667.5,1129.67 1659.5,1129C 1658.79,1127.75 1657.96,1126.58 1657,1125.5C 1656.17,1093.76 1656.34,1062.1 1657.5,1030.5 Z"/></g>
<g><path style="opacity:1" fill="#faebd9" d="M 1610.5,1027.5 C 1612.48,1027.16 1613.82,1027.82 1614.5,1029.5C 1614.99,1030.47 1615.49,1031.47 1616,1032.5C 1616.67,1064.83 1616.67,1097.17 1616,1129.5C 1615.63,1130.42 1615.13,1131.25 1614.5,1132C 1603.36,1133.77 1592.19,1133.94 1581,1132.5C 1580.05,1132.09 1579.39,1131.43 1579,1130.5C 1578.33,1097.17 1578.33,1063.83 1579,1030.5C 1579.83,1029.67 1580.67,1028.83 1581.5,1028C 1591.16,1027.5 1600.83,1027.33 1610.5,1027.5 Z"/></g>
<g><path style="opacity:1" fill="#fefdfc" d="M 1582.5,1030.5 C 1592.89,1030.19 1603.22,1030.52 1613.5,1031.5C 1614.67,1062.49 1614.83,1093.49 1614,1124.5C 1613.2,1127.64 1611.37,1129.8 1608.5,1131C 1600.81,1131.83 1593.15,1131.66 1585.5,1130.5C 1583.82,1129.23 1582.65,1127.56 1582,1125.5C 1581.17,1093.76 1581.34,1062.1 1582.5,1030.5 Z"/></g>
<g><path style="opacity:1" fill="#eda345" d="M 1423.5,1151.5 C 1501.33,1150.33 1579.33,1150.17 1657.5,1151C 1660.78,1152.14 1664.11,1152.98 1667.5,1153.5C 1670.13,1154.33 1672.8,1155.16 1675.5,1156C 1686.18,1156.17 1696.85,1156.67 1707.5,1157.5C 1708.61,1158.27 1709.28,1159.27 1709.5,1160.5C 1708.08,1160.29 1706.74,1159.79 1705.5,1159C 1695.17,1158.67 1684.83,1158.33 1674.5,1158C 1668.16,1156.49 1661.83,1154.99 1655.5,1153.5C 1655.39,1152.88 1655.06,1152.38 1654.5,1152C 1577.5,1151.5 1500.5,1151.33 1423.5,1151.5 Z"/></g>
<g><path style="opacity:1" fill="#f7dcbb" d="M 1709.5,1162.5 C 1711.78,1164.44 1714.12,1166.44 1716.5,1168.5C 1713.17,1168.5 1710.5,1167.17 1708.5,1164.5C 1706.92,1163.7 1705.26,1163.2 1703.5,1163C 1691.83,1162.67 1680.17,1162.33 1668.5,1162C 1665.08,1160.1 1661.41,1159.26 1657.5,1159.5C 1656.74,1158.73 1655.74,1158.23 1654.5,1158C 1577.5,1157.5 1500.5,1157.33 1423.5,1157.5C 1423.61,1156.88 1423.94,1156.38 1424.5,1156C 1503.5,1155.33 1582.5,1155.33 1661.5,1156C 1664.39,1158.56 1667.72,1160.22 1671.5,1161C 1684.21,1161.2 1696.88,1161.7 1709.5,1162.5 Z"/></g>
<g><path style="opacity:1" fill="#f9e6ce" d="M 1423.5,1157.5 C 1500.5,1157.33 1577.5,1157.5 1654.5,1158C 1655.74,1158.23 1656.74,1158.73 1657.5,1159.5C 1579.5,1159.5 1501.5,1159.5 1423.5,1159.5C 1422.18,1234.23 1421.51,1309.06 1421.5,1384C 1421.5,1458.86 1421.84,1533.69 1422.5,1608.5C 1421.83,1608.5 1421.17,1608.5 1420.5,1608.5C 1419.33,1460 1419.17,1311.33 1420,1162.5C 1420.22,1160.12 1421.39,1158.45 1423.5,1157.5 Z"/></g>
<g><path style="opacity:1" fill="#eb992f" d="M 1667.5,1153.5 C 1664.11,1152.98 1660.78,1152.14 1657.5,1151C 1579.33,1150.17 1501.33,1150.33 1423.5,1151.5C 1423.17,1152.17 1422.83,1152.83 1422.5,1153.5C 1420.5,1153.5 1419.5,1154.5 1419.5,1156.5C 1418.83,1157.5 1418.17,1158.5 1417.5,1159.5C 1416.78,1159.92 1416.28,1160.58 1416,1161.5C 1415.33,1310.83 1415.33,1460.17 1416,1609.5C 1416.38,1610.94 1417.21,1611.94 1418.5,1612.5C 1418.83,1612.5 1419.17,1612.5 1419.5,1612.5C 1419.86,1614.37 1420.86,1615.87 1422.5,1617C 1472.55,1617.98 1522.55,1617.65 1572.5,1616C 1574.89,1613.17 1576.72,1610 1578,1606.5C 1578.33,1574.5 1578.67,1542.5 1579,1510.5C 1579.83,1509.67 1580.67,1508.83 1581.5,1508C 1593.5,1507.33 1605.5,1507.33 1617.5,1508C 1618.44,1510.72 1618.78,1513.55 1618.5,1516.5C 1617.55,1514.04 1616.22,1511.71 1614.5,1509.5C 1609.83,1509.17 1605.17,1508.83 1600.5,1508.5C 1593.85,1508.3 1587.35,1508.97 1581,1510.5C 1580.67,1542.5 1580.33,1574.5 1580,1606.5C 1578.84,1610.32 1577.01,1613.82 1574.5,1617C 1572.05,1617.29 1569.71,1617.96 1567.5,1619C 1518.83,1619.67 1470.17,1619.67 1421.5,1619C 1419,1617.17 1416.83,1615 1415,1612.5C 1413.34,1462.86 1413.01,1313.2 1414,1163.5C 1415.59,1159.65 1416.92,1155.65 1418,1151.5C 1419.4,1150.77 1420.9,1150.27 1422.5,1150C 1502.83,1149.33 1583.17,1149.33 1663.5,1150C 1665.54,1150.5 1666.88,1151.66 1667.5,1153.5 Z"/></g>
<g><path style="opacity:1" fill="#efb266" d="M 1423.5,1151.5 C 1500.5,1151.33 1577.5,1151.5 1654.5,1152C 1655.06,1152.38 1655.39,1152.88 1655.5,1153.5C 1577.83,1153.5 1500.17,1153.5 1422.5,1153.5C 1422.83,1152.83 1423.17,1152.17 1423.5,1151.5 Z"/></g>
<g><path style="opacity:1" fill="#fefefe" d="M 1786.5,1453.5 C 1783.04,1453.53 1779.71,1454.2 1776.5,1455.5C 1775.76,1457.75 1774.42,1459.58 1772.5,1461C 1770.32,1461.16 1768.49,1462 1767,1463.5C 1764.39,1470.62 1763.39,1477.95 1764,1485.5C 1764.38,1486.06 1764.88,1486.39 1765.5,1486.5C 1768.24,1487.44 1770.24,1489.27 1771.5,1492C 1772.79,1492.49 1774.13,1492.66 1775.5,1492.5C 1775.67,1494.86 1776.01,1497.19 1776.5,1499.5C 1777.77,1503.38 1779.61,1507.05 1782,1510.5C 1788.35,1515.57 1792.35,1522.23 1794,1530.5C 1799.57,1535.64 1803.07,1541.97 1804.5,1549.5C 1807.7,1552.2 1810.37,1555.37 1812.5,1559C 1814.22,1559.74 1815.89,1560.57 1817.5,1561.5C 1819.63,1566.38 1821.46,1571.38 1823,1576.5C 1826.28,1577.89 1829.11,1579.89 1831.5,1582.5C 1831.76,1589.24 1834.26,1594.9 1839,1599.5C 1839.49,1601.13 1839.66,1602.8 1839.5,1604.5C 1790.53,1605.49 1741.53,1605.82 1692.5,1605.5C 1691.98,1595.77 1687.15,1589.44 1678,1586.5C 1675.79,1579.99 1673.12,1573.66 1670,1567.5C 1666.45,1565.87 1663.45,1563.54 1661,1560.5C 1661.44,1551.71 1657.61,1545.71 1649.5,1542.5C 1648.28,1538.4 1646.78,1534.4 1645,1530.5C 1641.52,1525.15 1637.18,1520.48 1632,1516.5C 1630.79,1511.33 1629.13,1506.33 1627,1501.5C 1625.17,1500.33 1623.33,1499.17 1621.5,1498C 1606.17,1497.33 1590.83,1497.33 1575.5,1498C 1573.33,1499.5 1571.17,1501 1569,1502.5C 1568.14,1504.09 1567.47,1505.75 1567,1507.5C 1566.67,1538.5 1566.33,1569.5 1566,1600.5C 1565.73,1602.1 1565.23,1603.6 1564.5,1605C 1517.5,1605.5 1470.5,1605.67 1423.5,1605.5C 1423.17,1457.93 1423.5,1310.43 1424.5,1163C 1501.5,1162.33 1578.5,1162.33 1655.5,1163C 1672.85,1163.83 1690.18,1164.83 1707.5,1166C 1708.88,1170.37 1711.88,1173.04 1716.5,1174C 1723.05,1173.92 1729.38,1174.92 1735.5,1177C 1737.17,1178 1738.5,1179.33 1739.5,1181C 1743.59,1182.06 1746.92,1184.39 1749.5,1188C 1750.83,1188.67 1752.17,1189.33 1753.5,1190C 1760.42,1192.3 1767.42,1194.3 1774.5,1196C 1775.25,1199.07 1776.25,1202.07 1777.5,1205C 1780.44,1205.97 1783.44,1206.8 1786.5,1207.5C 1789.62,1211.12 1792.96,1214.62 1796.5,1218C 1802.47,1221.89 1806.8,1227.22 1809.5,1234C 1812.27,1234.53 1814.94,1235.36 1817.5,1236.5C 1818.27,1240.45 1818.77,1244.45 1819,1248.5C 1821.25,1253.24 1824.41,1257.24 1828.5,1260.5C 1832.05,1271.19 1834.21,1282.19 1835,1293.5C 1836.33,1298.17 1837.67,1302.83 1839,1307.5C 1841.4,1309.31 1843.07,1311.64 1844,1314.5C 1846.44,1325.14 1846.77,1335.8 1845,1346.5C 1841.55,1349.95 1838.89,1353.95 1837,1358.5C 1835.44,1372.42 1832.77,1386.08 1829,1399.5C 1826.49,1400.09 1824.49,1401.42 1823,1403.5C 1822.26,1407.39 1820.93,1411.05 1819,1414.5C 1818.67,1417.17 1818.33,1419.83 1818,1422.5C 1813.64,1424.3 1809.47,1426.46 1805.5,1429C 1804.71,1431.37 1803.54,1433.53 1802,1435.5C 1797.78,1438.27 1793.78,1441.27 1790,1444.5C 1788.26,1447.31 1787.09,1450.31 1786.5,1453.5 Z"/></g>
<g><path style="opacity:1" fill="#efb66d" d="M 1419.5,1156.5 C 1418.51,1307.15 1418.17,1457.81 1418.5,1608.5C 1417.5,1459 1417.17,1309.33 1417.5,1159.5C 1418.17,1158.5 1418.83,1157.5 1419.5,1156.5 Z"/></g>
<g><path style="opacity:1" fill="#f7dcba" d="M 1717.5,1168.5 C 1725.15,1167.17 1731.82,1169.01 1737.5,1174C 1745.67,1173.76 1752.34,1176.76 1757.5,1183C 1762.86,1183.45 1767.53,1185.45 1771.5,1189C 1774.22,1189.27 1776.89,1189.77 1779.5,1190.5C 1783.62,1195.13 1787.96,1199.63 1792.5,1204C 1797.54,1205.59 1801.21,1208.76 1803.5,1213.5C 1800.4,1212.24 1798.07,1210.07 1796.5,1207C 1795.17,1206.67 1793.83,1206.33 1792.5,1206C 1787.36,1201.77 1782.69,1197.11 1778.5,1192C 1766.36,1191.59 1756.36,1186.92 1748.5,1178C 1745.5,1177.67 1742.5,1177.33 1739.5,1177C 1737.88,1176.38 1736.55,1175.38 1735.5,1174C 1731.08,1172.19 1726.41,1171.19 1721.5,1171C 1720.14,1170.07 1718.81,1169.23 1717.5,1168.5 Z"/></g>
<g><path style="opacity:1" fill="#f3c790" d="M 1422.5,1153.5 C 1500.17,1153.5 1577.83,1153.5 1655.5,1153.5C 1661.83,1154.99 1668.16,1156.49 1674.5,1158C 1684.83,1158.33 1695.17,1158.67 1705.5,1159C 1706.74,1159.79 1708.08,1160.29 1709.5,1160.5C 1709.5,1161.17 1709.5,1161.83 1709.5,1162.5C 1696.88,1161.7 1684.21,1161.2 1671.5,1161C 1667.72,1160.22 1664.39,1158.56 1661.5,1156C 1582.5,1155.33 1503.5,1155.33 1424.5,1156C 1423.94,1156.38 1423.61,1156.88 1423.5,1157.5C 1421.39,1158.45 1420.22,1160.12 1420,1162.5C 1419.17,1311.33 1419.33,1460 1420.5,1608.5C 1420.7,1610.04 1421.37,1611.38 1422.5,1612.5C 1471.16,1613.67 1519.83,1613.83 1568.5,1613C 1569.94,1611.43 1571.44,1609.93 1573,1608.5C 1573.33,1574.83 1573.67,1541.17 1574,1507.5C 1576.26,1505.57 1578.76,1504.07 1581.5,1503C 1592.34,1502.17 1603.01,1502.34 1613.5,1503.5C 1603.16,1503.33 1592.83,1503.5 1582.5,1504C 1580.15,1504.11 1578.65,1505.28 1578,1507.5C 1576.69,1540.11 1576.02,1572.77 1576,1605.5C 1574.72,1611.12 1571.22,1614.29 1565.5,1615C 1517.83,1615.67 1470.17,1615.67 1422.5,1615C 1421.63,1613.96 1420.63,1613.12 1419.5,1612.5C 1419.17,1612.5 1418.83,1612.5 1418.5,1612.5C 1418.5,1611.17 1418.5,1609.83 1418.5,1608.5C 1418.17,1457.81 1418.51,1307.15 1419.5,1156.5C 1419.5,1154.5 1420.5,1153.5 1422.5,1153.5 Z"/></g>
<g><path style="opacity:1" fill="#eca244" d="M 1417.5,1159.5 C 1417.17,1309.33 1417.5,1459 1418.5,1608.5C 1418.5,1609.83 1418.5,1611.17 1418.5,1612.5C 1417.21,1611.94 1416.38,1610.94 1416,1609.5C 1415.33,1460.17 1415.33,1310.83 1416,1161.5C 1416.28,1160.58 1416.78,1159.92 1417.5,1159.5 Z"/></g>
<g><path style="opacity:1" fill="#efb365" d="M 1709.5,1160.5 C 1718.03,1164.03 1727.03,1165.86 1736.5,1166C 1738.4,1167.82 1740.07,1169.82 1741.5,1172C 1746.51,1171.9 1751.18,1173.07 1755.5,1175.5C 1756.43,1176.69 1756.76,1178.02 1756.5,1179.5C 1763,1178.42 1768,1180.59 1771.5,1186C 1775.94,1186.82 1780.11,1188.32 1784,1190.5C 1788.57,1197.07 1794.41,1202.24 1801.5,1206C 1804.88,1208.37 1807.04,1211.54 1808,1215.5C 1809.8,1217.32 1811.97,1218.48 1814.5,1219C 1816.47,1222.61 1818.97,1225.78 1822,1228.5C 1823.16,1233.1 1823.99,1237.76 1824.5,1242.5C 1823.88,1242.39 1823.38,1242.06 1823,1241.5C 1822.77,1237.42 1822.1,1233.42 1821,1229.5C 1814.94,1224.27 1809.11,1218.94 1803.5,1213.5C 1801.21,1208.76 1797.54,1205.59 1792.5,1204C 1787.96,1199.63 1783.62,1195.13 1779.5,1190.5C 1776.89,1189.77 1774.22,1189.27 1771.5,1189C 1767.53,1185.45 1762.86,1183.45 1757.5,1183C 1752.34,1176.76 1745.67,1173.76 1737.5,1174C 1731.82,1169.01 1725.15,1167.17 1717.5,1168.5C 1717.17,1168.5 1716.83,1168.5 1716.5,1168.5C 1714.12,1166.44 1711.78,1164.44 1709.5,1162.5C 1709.5,1161.83 1709.5,1161.17 1709.5,1160.5 Z"/></g>
<g><path style="opacity:1" fill="#f3c992" d="M 1803.5,1213.5 C 1809.11,1218.94 1814.94,1224.27 1821,1229.5C 1822.1,1233.42 1822.77,1237.42 1823,1241.5C 1823.38,1242.06 1823.88,1242.39 1824.5,1242.5C 1826.2,1244.19 1828.2,1245.53 1830.5,1246.5C 1833.29,1248.96 1835.29,1251.96 1836.5,1255.5C 1837.25,1261.52 1837.92,1267.52 1838.5,1273.5C 1837.83,1273.17 1837.17,1272.83 1836.5,1272.5C 1836.46,1266.38 1835.63,1260.38 1834,1254.5C 1823.87,1249.25 1818.54,1240.92 1818,1229.5C 1813.52,1225.26 1808.85,1221.26 1804,1217.5C 1803.51,1216.21 1803.34,1214.87 1803.5,1213.5 Z"/></g>
<g><path style="opacity:1" fill="#eda346" d="M 1830.5,1246.5 C 1833.25,1247.74 1835.58,1249.57 1837.5,1252C 1838.11,1258.86 1838.95,1265.69 1840,1272.5C 1843.48,1274.88 1846.15,1277.88 1848,1281.5C 1848.11,1286.38 1848.78,1291.38 1850,1296.5C 1850.62,1298.12 1851.62,1299.45 1853,1300.5C 1853.83,1317.34 1853.66,1334.01 1852.5,1350.5C 1852.67,1334.83 1852.5,1319.16 1852,1303.5C 1849.22,1300.24 1846.72,1296.91 1844.5,1293.5C 1843.66,1287.58 1842.5,1281.58 1841,1275.5C 1840.29,1274.62 1839.46,1273.95 1838.5,1273.5C 1837.92,1267.52 1837.25,1261.52 1836.5,1255.5C 1835.29,1251.96 1833.29,1248.96 1830.5,1246.5 Z"/></g>
<g><path style="opacity:1" fill="#f8e5cd" d="M 1836.5,1272.5 C 1837.17,1272.83 1837.83,1273.17 1838.5,1273.5C 1839.46,1273.95 1840.29,1274.62 1841,1275.5C 1842.5,1281.58 1843.66,1287.58 1844.5,1293.5C 1843.74,1298.64 1845.24,1302.97 1849,1306.5C 1849.89,1323.54 1849.56,1340.54 1848,1357.5C 1845.85,1358.98 1844.52,1360.98 1844,1363.5C 1843.55,1369.26 1842.39,1374.59 1840.5,1379.5C 1840.33,1373.82 1840.5,1368.16 1841,1362.5C 1841.48,1358.21 1843.48,1354.88 1847,1352.5C 1847.67,1337.83 1847.67,1323.17 1847,1308.5C 1844.75,1306.77 1842.75,1304.77 1841,1302.5C 1840.17,1295.52 1839.5,1288.52 1839,1281.5C 1836.9,1278.89 1836.06,1275.89 1836.5,1272.5 Z"/></g>
<g><path style="opacity:1" fill="#f2bd7c" d="M 1844.5,1293.5 C 1846.72,1296.91 1849.22,1300.24 1852,1303.5C 1852.5,1319.16 1852.67,1334.83 1852.5,1350.5C 1852.66,1352.2 1852.49,1353.87 1852,1355.5C 1847.49,1363.95 1844.82,1372.95 1844,1382.5C 1842.87,1384.14 1841.37,1385.14 1839.5,1385.5C 1838.88,1385.61 1838.38,1385.94 1838,1386.5C 1837.41,1392.91 1836.41,1399.24 1835,1405.5C 1830.42,1412.33 1826.08,1419.33 1822,1426.5C 1820.36,1428.81 1818.2,1430.31 1815.5,1431C 1812.47,1433.56 1810.3,1436.73 1809,1440.5C 1807.27,1442.08 1805.44,1443.41 1803.5,1444.5C 1806.47,1441.25 1808.97,1437.58 1811,1433.5C 1813.45,1430.37 1816.45,1428.04 1820,1426.5C 1823.21,1419.69 1827.21,1413.35 1832,1407.5C 1834.92,1401.54 1836.25,1395.2 1836,1388.5C 1837.73,1385.61 1839.23,1382.61 1840.5,1379.5C 1842.39,1374.59 1843.55,1369.26 1844,1363.5C 1844.52,1360.98 1845.85,1358.98 1848,1357.5C 1849.56,1340.54 1849.89,1323.54 1849,1306.5C 1845.24,1302.97 1843.74,1298.64 1844.5,1293.5 Z"/></g>
<g><path style="opacity:1" fill="#faebd7" d="M 1840.5,1379.5 C 1839.23,1382.61 1837.73,1385.61 1836,1388.5C 1836.25,1395.2 1834.92,1401.54 1832,1407.5C 1827.21,1413.35 1823.21,1419.69 1820,1426.5C 1816.45,1428.04 1813.45,1430.37 1811,1433.5C 1808.97,1437.58 1806.47,1441.25 1803.5,1444.5C 1803.17,1444.5 1802.83,1444.5 1802.5,1444.5C 1800.22,1445.64 1797.89,1446.81 1795.5,1448C 1793.96,1451.55 1791.63,1454.55 1788.5,1457C 1782.36,1460.38 1776.03,1463.38 1769.5,1466C 1768.66,1467.01 1768.33,1468.18 1768.5,1469.5C 1767.69,1470.43 1766.85,1471.43 1766,1472.5C 1765.5,1477.15 1765.33,1481.82 1765.5,1486.5C 1764.88,1486.39 1764.38,1486.06 1764,1485.5C 1763.39,1477.95 1764.39,1470.62 1767,1463.5C 1768.49,1462 1770.32,1461.16 1772.5,1461C 1774.42,1459.58 1775.76,1457.75 1776.5,1455.5C 1779.71,1454.2 1783.04,1453.53 1786.5,1453.5C 1790.25,1449.25 1794.25,1445.08 1798.5,1441C 1802.18,1440.4 1804.35,1438.24 1805,1434.5C 1808.52,1432.83 1810.69,1430.16 1811.5,1426.5C 1814.13,1425.91 1816.79,1425.58 1819.5,1425.5C 1820.8,1421.18 1822.13,1416.85 1823.5,1412.5C 1825.72,1407.78 1828.88,1403.78 1833,1400.5C 1832.82,1393.37 1834.49,1386.7 1838,1380.5C 1838.67,1379.75 1839.5,1379.41 1840.5,1379.5 Z"/></g>
<g><path style="opacity:1" fill="#f3c891" d="M 1802.5,1444.5 C 1794.04,1455.72 1783.38,1464.05 1770.5,1469.5C 1769.34,1474.8 1769.17,1480.14 1770,1485.5C 1771.82,1486.33 1773.65,1487.16 1775.5,1488C 1776.82,1488.82 1777.49,1489.98 1777.5,1491.5C 1770.21,1490.04 1766.88,1485.54 1767.5,1478C 1767.68,1475.13 1768.02,1472.3 1768.5,1469.5C 1768.33,1468.18 1768.66,1467.01 1769.5,1466C 1776.03,1463.38 1782.36,1460.38 1788.5,1457C 1791.63,1454.55 1793.96,1451.55 1795.5,1448C 1797.89,1446.81 1800.22,1445.64 1802.5,1444.5 Z"/></g>
<g><path style="opacity:1" fill="#f6d8b1" d="M 1768.5,1469.5 C 1768.02,1472.3 1767.68,1475.13 1767.5,1478C 1766.88,1485.54 1770.21,1490.04 1777.5,1491.5C 1782.17,1499.86 1786.84,1508.19 1791.5,1516.5C 1788.83,1514 1786,1511.67 1783,1509.5C 1781.54,1505.56 1779.38,1502.22 1776.5,1499.5C 1776.01,1497.19 1775.67,1494.86 1775.5,1492.5C 1774.13,1492.66 1772.79,1492.49 1771.5,1492C 1770.24,1489.27 1768.24,1487.44 1765.5,1486.5C 1765.33,1481.82 1765.5,1477.15 1766,1472.5C 1766.85,1471.43 1767.69,1470.43 1768.5,1469.5 Z"/></g>
<g><path style="opacity:1" fill="#f2c488" d="M 1791.5,1516.5 C 1797.19,1519.55 1800.69,1524.21 1802,1530.5C 1804.04,1532.87 1806.37,1534.87 1809,1536.5C 1809.19,1538.58 1809.69,1540.58 1810.5,1542.5C 1813.48,1544.98 1816.32,1547.65 1819,1550.5C 1820.13,1552.35 1820.63,1554.35 1820.5,1556.5C 1818.86,1554.19 1816.86,1552.19 1814.5,1550.5C 1809.24,1546.3 1805.74,1540.97 1804,1534.5C 1799.63,1531.74 1797.3,1527.74 1797,1522.5C 1794.92,1520.63 1793.09,1518.63 1791.5,1516.5 Z"/></g>
<g><path style="opacity:1" fill="#eca449" d="M 1839.5,1385.5 C 1838.75,1391.79 1838.25,1398.12 1838,1404.5C 1833.54,1408.09 1831.2,1412.76 1831,1418.5C 1827.06,1421.26 1824.56,1424.92 1823.5,1429.5C 1818.48,1434.38 1813.82,1439.55 1809.5,1445C 1807.88,1445.62 1806.55,1446.62 1805.5,1448C 1799.06,1449.77 1794.39,1453.77 1791.5,1460C 1785.78,1464.55 1779.44,1468.05 1772.5,1470.5C 1771.51,1475.12 1771.17,1479.79 1771.5,1484.5C 1773.83,1484.25 1775.83,1484.91 1777.5,1486.5C 1782.1,1496.65 1787.44,1506.31 1793.5,1515.5C 1795.86,1517.85 1798.53,1519.85 1801.5,1521.5C 1802.27,1523.81 1802.94,1526.15 1803.5,1528.5C 1809.13,1531.89 1812.63,1536.89 1814,1543.5C 1818.09,1544.7 1820.59,1547.36 1821.5,1551.5C 1822.5,1551.5 1823.5,1551.5 1824.5,1551.5C 1824.2,1554.72 1824.87,1557.72 1826.5,1560.5C 1827.85,1561.95 1829.52,1562.62 1831.5,1562.5C 1835.91,1569.99 1839.58,1577.99 1842.5,1586.5C 1844.86,1589.25 1846.86,1592.25 1848.5,1595.5C 1842.53,1591.7 1838.7,1586.37 1837,1579.5C 1836.33,1578.75 1835.5,1578.41 1834.5,1578.5C 1832.68,1574.86 1830.84,1571.19 1829,1567.5C 1825.55,1564.29 1822.71,1560.63 1820.5,1556.5C 1820.63,1554.35 1820.13,1552.35 1819,1550.5C 1816.32,1547.65 1813.48,1544.98 1810.5,1542.5C 1809.69,1540.58 1809.19,1538.58 1809,1536.5C 1806.37,1534.87 1804.04,1532.87 1802,1530.5C 1800.69,1524.21 1797.19,1519.55 1791.5,1516.5C 1786.84,1508.19 1782.17,1499.86 1777.5,1491.5C 1777.49,1489.98 1776.82,1488.82 1775.5,1488C 1773.65,1487.16 1771.82,1486.33 1770,1485.5C 1769.17,1480.14 1769.34,1474.8 1770.5,1469.5C 1783.38,1464.05 1794.04,1455.72 1802.5,1444.5C 1802.83,1444.5 1803.17,1444.5 1803.5,1444.5C 1805.44,1443.41 1807.27,1442.08 1809,1440.5C 1810.3,1436.73 1812.47,1433.56 1815.5,1431C 1818.2,1430.31 1820.36,1428.81 1822,1426.5C 1826.08,1419.33 1830.42,1412.33 1835,1405.5C 1836.41,1399.24 1837.41,1392.91 1838,1386.5C 1838.38,1385.94 1838.88,1385.61 1839.5,1385.5 Z"/></g>
<g><path style="opacity:1" fill="#f8ddbb" d="M 1688.5,1608.5 C 1687.39,1608.44 1686.39,1608.11 1685.5,1607.5C 1685.11,1605.82 1684.61,1604.15 1684,1602.5C 1680.53,1597.83 1676.53,1593.83 1672,1590.5C 1670.71,1587.59 1669.71,1584.59 1669,1581.5C 1663.44,1577.38 1659.61,1572.05 1657.5,1565.5C 1655.89,1561.17 1654.39,1556.83 1653,1552.5C 1650.22,1549.05 1646.89,1546.38 1643,1544.5C 1642.88,1540.96 1641.71,1537.96 1639.5,1535.5C 1634.17,1528.5 1628.17,1522.17 1621.5,1516.5C 1620.68,1513.55 1620.18,1510.55 1620,1507.5C 1618.36,1505.27 1616.2,1503.93 1613.5,1503.5C 1603.01,1502.34 1592.34,1502.17 1581.5,1503C 1578.76,1504.07 1576.26,1505.57 1574,1507.5C 1573.67,1541.17 1573.33,1574.83 1573,1608.5C 1571.44,1609.93 1569.94,1611.43 1568.5,1613C 1519.83,1613.83 1471.16,1613.67 1422.5,1612.5C 1421.37,1611.38 1420.7,1610.04 1420.5,1608.5C 1421.17,1608.5 1421.83,1608.5 1422.5,1608.5C 1422.41,1609.5 1422.75,1610.33 1423.5,1611C 1471.5,1611.67 1519.5,1611.67 1567.5,1611C 1570.11,1609.62 1571.61,1607.45 1572,1604.5C 1572.33,1571.83 1572.67,1539.17 1573,1506.5C 1574.67,1505.15 1575.84,1503.49 1576.5,1501.5C 1588.99,1500.34 1601.66,1500.17 1614.5,1501C 1618.93,1501.77 1622.27,1504.1 1624.5,1508C 1626.18,1512.84 1628.51,1517.34 1631.5,1521.5C 1635.85,1522.81 1638.35,1525.81 1639,1530.5C 1643.59,1533.6 1645.92,1537.93 1646,1543.5C 1649.51,1545.59 1652.84,1547.92 1656,1550.5C 1657,1554.17 1658,1557.83 1659,1561.5C 1666.91,1571.52 1673.91,1582.19 1680,1593.5C 1685.41,1596.98 1688.24,1601.98 1688.5,1608.5 Z"/></g>
<g><path style="opacity:1" fill="#f7ddbb" d="M 1814.5,1550.5 C 1816.86,1552.19 1818.86,1554.19 1820.5,1556.5C 1822.71,1560.63 1825.55,1564.29 1829,1567.5C 1830.84,1571.19 1832.68,1574.86 1834.5,1578.5C 1834.5,1579.17 1834.5,1579.83 1834.5,1580.5C 1831.84,1578.89 1829.01,1577.55 1826,1576.5C 1822.6,1569.78 1819.94,1562.78 1818,1555.5C 1816.2,1554.21 1815.03,1552.54 1814.5,1550.5 Z"/></g>
<g><path style="opacity:1" fill="#fcf6ee" d="M 1657.5,1159.5 C 1661.41,1159.26 1665.08,1160.1 1668.5,1162C 1680.17,1162.33 1691.83,1162.67 1703.5,1163C 1705.26,1163.2 1706.92,1163.7 1708.5,1164.5C 1710.5,1167.17 1713.17,1168.5 1716.5,1168.5C 1716.83,1168.5 1717.17,1168.5 1717.5,1168.5C 1718.81,1169.23 1720.14,1170.07 1721.5,1171C 1726.41,1171.19 1731.08,1172.19 1735.5,1174C 1736.55,1175.38 1737.88,1176.38 1739.5,1177C 1742.5,1177.33 1745.5,1177.67 1748.5,1178C 1756.36,1186.92 1766.36,1191.59 1778.5,1192C 1782.69,1197.11 1787.36,1201.77 1792.5,1206C 1793.83,1206.33 1795.17,1206.67 1796.5,1207C 1798.07,1210.07 1800.4,1212.24 1803.5,1213.5C 1803.34,1214.87 1803.51,1216.21 1804,1217.5C 1808.85,1221.26 1813.52,1225.26 1818,1229.5C 1818.54,1240.92 1823.87,1249.25 1834,1254.5C 1835.63,1260.38 1836.46,1266.38 1836.5,1272.5C 1836.06,1275.89 1836.9,1278.89 1839,1281.5C 1839.5,1288.52 1840.17,1295.52 1841,1302.5C 1842.75,1304.77 1844.75,1306.77 1847,1308.5C 1847.67,1323.17 1847.67,1337.83 1847,1352.5C 1843.48,1354.88 1841.48,1358.21 1841,1362.5C 1840.5,1368.16 1840.33,1373.82 1840.5,1379.5C 1839.5,1379.41 1838.67,1379.75 1838,1380.5C 1834.49,1386.7 1832.82,1393.37 1833,1400.5C 1828.88,1403.78 1825.72,1407.78 1823.5,1412.5C 1822.13,1416.85 1820.8,1421.18 1819.5,1425.5C 1816.79,1425.58 1814.13,1425.91 1811.5,1426.5C 1810.69,1430.16 1808.52,1432.83 1805,1434.5C 1804.35,1438.24 1802.18,1440.4 1798.5,1441C 1794.25,1445.08 1790.25,1449.25 1786.5,1453.5C 1787.09,1450.31 1788.26,1447.31 1790,1444.5C 1793.78,1441.27 1797.78,1438.27 1802,1435.5C 1803.54,1433.53 1804.71,1431.37 1805.5,1429C 1809.47,1426.46 1813.64,1424.3 1818,1422.5C 1818.33,1419.83 1818.67,1417.17 1819,1414.5C 1820.93,1411.05 1822.26,1407.39 1823,1403.5C 1824.49,1401.42 1826.49,1400.09 1829,1399.5C 1832.77,1386.08 1835.44,1372.42 1837,1358.5C 1838.89,1353.95 1841.55,1349.95 1845,1346.5C 1846.77,1335.8 1846.44,1325.14 1844,1314.5C 1843.07,1311.64 1841.4,1309.31 1839,1307.5C 1837.67,1302.83 1836.33,1298.17 1835,1293.5C 1834.21,1282.19 1832.05,1271.19 1828.5,1260.5C 1824.41,1257.24 1821.25,1253.24 1819,1248.5C 1818.77,1244.45 1818.27,1240.45 1817.5,1236.5C 1814.94,1235.36 1812.27,1234.53 1809.5,1234C 1806.8,1227.22 1802.47,1221.89 1796.5,1218C 1792.96,1214.62 1789.62,1211.12 1786.5,1207.5C 1783.44,1206.8 1780.44,1205.97 1777.5,1205C 1776.25,1202.07 1775.25,1199.07 1774.5,1196C 1767.42,1194.3 1760.42,1192.3 1753.5,1190C 1752.17,1189.33 1750.83,1188.67 1749.5,1188C 1746.92,1184.39 1743.59,1182.06 1739.5,1181C 1738.5,1179.33 1737.17,1178 1735.5,1177C 1729.38,1174.92 1723.05,1173.92 1716.5,1174C 1711.88,1173.04 1708.88,1170.37 1707.5,1166C 1690.18,1164.83 1672.85,1163.83 1655.5,1163C 1578.5,1162.33 1501.5,1162.33 1424.5,1163C 1423.5,1310.43 1423.17,1457.93 1423.5,1605.5C 1470.5,1605.67 1517.5,1605.5 1564.5,1605C 1565.23,1603.6 1565.73,1602.1 1566,1600.5C 1566.33,1569.5 1566.67,1538.5 1567,1507.5C 1567.47,1505.75 1568.14,1504.09 1569,1502.5C 1571.17,1501 1573.33,1499.5 1575.5,1498C 1590.83,1497.33 1606.17,1497.33 1621.5,1498C 1623.33,1499.17 1625.17,1500.33 1627,1501.5C 1629.13,1506.33 1630.79,1511.33 1632,1516.5C 1637.18,1520.48 1641.52,1525.15 1645,1530.5C 1646.78,1534.4 1648.28,1538.4 1649.5,1542.5C 1657.61,1545.71 1661.44,1551.71 1661,1560.5C 1663.45,1563.54 1666.45,1565.87 1670,1567.5C 1673.12,1573.66 1675.79,1579.99 1678,1586.5C 1687.15,1589.44 1691.98,1595.77 1692.5,1605.5C 1741.53,1605.82 1790.53,1605.49 1839.5,1604.5C 1839.66,1602.8 1839.49,1601.13 1839,1599.5C 1834.26,1594.9 1831.76,1589.24 1831.5,1582.5C 1829.11,1579.89 1826.28,1577.89 1823,1576.5C 1821.46,1571.38 1819.63,1566.38 1817.5,1561.5C 1815.89,1560.57 1814.22,1559.74 1812.5,1559C 1810.37,1555.37 1807.7,1552.2 1804.5,1549.5C 1803.07,1541.97 1799.57,1535.64 1794,1530.5C 1792.35,1522.23 1788.35,1515.57 1782,1510.5C 1779.61,1507.05 1777.77,1503.38 1776.5,1499.5C 1779.38,1502.22 1781.54,1505.56 1783,1509.5C 1786,1511.67 1788.83,1514 1791.5,1516.5C 1793.09,1518.63 1794.92,1520.63 1797,1522.5C 1797.3,1527.74 1799.63,1531.74 1804,1534.5C 1805.74,1540.97 1809.24,1546.3 1814.5,1550.5C 1815.03,1552.54 1816.2,1554.21 1818,1555.5C 1819.94,1562.78 1822.6,1569.78 1826,1576.5C 1829.01,1577.55 1831.84,1578.89 1834.5,1580.5C 1834.77,1584.36 1836.1,1587.69 1838.5,1590.5C 1840.72,1594.23 1843.56,1597.57 1847,1600.5C 1847.5,1603.82 1847.67,1607.15 1847.5,1610.5C 1795.5,1610.67 1743.5,1610.5 1691.5,1610C 1690.76,1608.96 1689.76,1608.46 1688.5,1608.5C 1688.24,1601.98 1685.41,1596.98 1680,1593.5C 1673.91,1582.19 1666.91,1571.52 1659,1561.5C 1658,1557.83 1657,1554.17 1656,1550.5C 1652.84,1547.92 1649.51,1545.59 1646,1543.5C 1645.92,1537.93 1643.59,1533.6 1639,1530.5C 1638.35,1525.81 1635.85,1522.81 1631.5,1521.5C 1628.51,1517.34 1626.18,1512.84 1624.5,1508C 1622.27,1504.1 1618.93,1501.77 1614.5,1501C 1601.66,1500.17 1588.99,1500.34 1576.5,1501.5C 1575.17,1501.5 1573.83,1501.5 1572.5,1501.5C 1572.69,1503.1 1572.19,1504.44 1571,1505.5C 1570.67,1535.17 1570.33,1564.83 1570,1594.5C 1569.95,1599.02 1569.12,1603.36 1567.5,1607.5C 1519.17,1608.5 1470.84,1608.83 1422.5,1608.5C 1421.84,1533.69 1421.5,1458.86 1421.5,1384C 1421.51,1309.06 1422.18,1234.23 1423.5,1159.5C 1501.5,1159.5 1579.5,1159.5 1657.5,1159.5 Z"/></g>
<g><path style="opacity:1" fill="#f2bb78" d="M 1639.5,1535.5 C 1641.71,1537.96 1642.88,1540.96 1643,1544.5C 1646.89,1546.38 1650.22,1549.05 1653,1552.5C 1654.39,1556.83 1655.89,1561.17 1657.5,1565.5C 1655.23,1564.07 1653.06,1562.41 1651,1560.5C 1649.89,1555.27 1647.05,1551.27 1642.5,1548.5C 1641.04,1544.27 1640.04,1539.94 1639.5,1535.5 Z"/></g>
<g><path style="opacity:1" fill="#fcf7f1" d="M 1575.5,1274.5 C 1606.87,1274.05 1638.2,1274.55 1669.5,1276C 1671.29,1276.78 1672.79,1277.95 1674,1279.5C 1675.48,1282.47 1676.98,1285.47 1678.5,1288.5C 1685.32,1289.82 1689.82,1293.82 1692,1300.5C 1692.67,1319.17 1692.67,1337.83 1692,1356.5C 1690.67,1360.5 1689.33,1364.5 1688,1368.5C 1684.77,1373.37 1680.27,1375.37 1674.5,1374.5C 1674.14,1378.2 1672.47,1381.2 1669.5,1383.5C 1660.82,1387.11 1651.82,1389.61 1642.5,1391C 1621.17,1391.67 1599.83,1391.67 1578.5,1391C 1574.28,1389.97 1570.78,1387.81 1568,1384.5C 1566.37,1350.2 1566.04,1315.87 1567,1281.5C 1568.85,1277.84 1571.68,1275.51 1575.5,1274.5 Z"/></g>
<g><path style="opacity:1" fill="#f5d3a6" d="M 1575.5,1283.5 C 1574.84,1315.85 1575.51,1347.85 1577.5,1379.5C 1577.93,1380.71 1578.6,1381.71 1579.5,1382.5C 1580.61,1383.29 1581.94,1383.79 1583.5,1384C 1602.16,1384.5 1620.83,1384.67 1639.5,1384.5C 1630.02,1385.83 1620.19,1386.5 1610,1386.5C 1600.17,1386.33 1590.33,1386.17 1580.5,1386C 1578.15,1385.65 1576.32,1384.49 1575,1382.5C 1573.85,1365.56 1573.35,1348.56 1573.5,1331.5C 1573.5,1315.15 1574.17,1299.15 1575.5,1283.5 Z"/></g>
<g><path style="opacity:1" fill="#f3c58a" d="M 1654.5,1278.5 C 1661.28,1278.87 1667.28,1281.2 1672.5,1285.5C 1673.48,1287.41 1674.14,1289.41 1674.5,1291.5C 1678.53,1294.38 1682.53,1297.55 1686.5,1301C 1687.19,1302.07 1687.69,1303.23 1688,1304.5C 1688.67,1320.5 1688.67,1336.5 1688,1352.5C 1683.18,1356.65 1680.02,1361.82 1678.5,1368C 1674.58,1369.86 1670.58,1371.53 1666.5,1373C 1663.29,1376.07 1659.63,1378.4 1655.5,1380C 1651.77,1380.43 1648.44,1381.76 1645.5,1384C 1643.53,1384.5 1641.53,1384.66 1639.5,1384.5C 1647.03,1381.42 1654.69,1378.25 1662.5,1375C 1664.02,1373.65 1665.35,1372.15 1666.5,1370.5C 1669.15,1369.53 1671.49,1368.19 1673.5,1366.5C 1678.24,1366.59 1680.41,1364.26 1680,1359.5C 1682.49,1357.19 1684.49,1354.52 1686,1351.5C 1686.67,1336.5 1686.67,1321.5 1686,1306.5C 1681.93,1300.94 1677.43,1295.94 1672.5,1291.5C 1671.8,1289.28 1670.46,1287.45 1668.5,1286C 1663.83,1284 1659.17,1282 1654.5,1280C 1629.15,1279.21 1603.81,1279.38 1578.5,1280.5C 1579.26,1279.73 1580.26,1279.23 1581.5,1279C 1605.83,1278.5 1630.16,1278.33 1654.5,1278.5 Z"/></g>
<g><path style="opacity:1" fill="#f0b569" d="M 1672.5,1291.5 C 1667.02,1288.24 1661.36,1285.07 1655.5,1282C 1630.5,1281.33 1605.5,1281.33 1580.5,1282C 1579.67,1282.83 1578.83,1283.67 1578,1284.5C 1577.5,1316.16 1577.33,1347.83 1577.5,1379.5C 1575.51,1347.85 1574.84,1315.85 1575.5,1283.5C 1576.17,1282.17 1577.17,1281.17 1578.5,1280.5C 1603.81,1279.38 1629.15,1279.21 1654.5,1280C 1659.17,1282 1663.83,1284 1668.5,1286C 1670.46,1287.45 1671.8,1289.28 1672.5,1291.5 Z"/></g>
<g><path style="opacity:1" fill="#ec9f3d" d="M 1672.5,1291.5 C 1677.43,1295.94 1681.93,1300.94 1686,1306.5C 1686.67,1321.5 1686.67,1336.5 1686,1351.5C 1684.49,1354.52 1682.49,1357.19 1680,1359.5C 1680.41,1364.26 1678.24,1366.59 1673.5,1366.5C 1674.77,1365.52 1676.1,1364.52 1677.5,1363.5C 1678.33,1360.84 1679.17,1358.17 1680,1355.5C 1682.33,1354.5 1684,1352.83 1685,1350.5C 1685.67,1337.17 1685.67,1323.83 1685,1310.5C 1683.43,1306.56 1681.59,1302.89 1679.5,1299.5C 1677.35,1299.63 1675.35,1299.13 1673.5,1298C 1671.08,1295.25 1669.08,1292.25 1667.5,1289C 1663.95,1288.71 1660.95,1287.38 1658.5,1285C 1635.19,1283.47 1611.86,1283.14 1588.5,1284C 1585.91,1284.23 1583.41,1284.73 1581,1285.5C 1580.17,1316.88 1580.34,1348.21 1581.5,1379.5C 1582.38,1380.25 1583.38,1380.75 1584.5,1381C 1604.19,1381.78 1623.86,1381.62 1643.5,1380.5C 1643.08,1381.22 1642.42,1381.72 1641.5,1382C 1620.84,1382.5 1600.17,1382.67 1579.5,1382.5C 1578.6,1381.71 1577.93,1380.71 1577.5,1379.5C 1577.33,1347.83 1577.5,1316.16 1578,1284.5C 1578.83,1283.67 1579.67,1282.83 1580.5,1282C 1605.5,1281.33 1630.5,1281.33 1655.5,1282C 1661.36,1285.07 1667.02,1288.24 1672.5,1291.5 Z"/></g>
<g><path style="opacity:1" fill="#eb9323" d="M 1673.5,1366.5 C 1668.33,1367 1664.33,1369.5 1661.5,1374C 1655.14,1375.36 1649.14,1377.52 1643.5,1380.5C 1623.86,1381.62 1604.19,1381.78 1584.5,1381C 1583.38,1380.75 1582.38,1380.25 1581.5,1379.5C 1580.34,1348.21 1580.17,1316.88 1581,1285.5C 1583.41,1284.73 1585.91,1284.23 1588.5,1284C 1611.86,1283.14 1635.19,1283.47 1658.5,1285C 1660.95,1287.38 1663.95,1288.71 1667.5,1289C 1669.08,1292.25 1671.08,1295.25 1673.5,1298C 1675.35,1299.13 1677.35,1299.63 1679.5,1299.5C 1681.59,1302.89 1683.43,1306.56 1685,1310.5C 1685.67,1323.83 1685.67,1337.17 1685,1350.5C 1684,1352.83 1682.33,1354.5 1680,1355.5C 1679.17,1358.17 1678.33,1360.84 1677.5,1363.5C 1676.1,1364.52 1674.77,1365.52 1673.5,1366.5 Z"/></g>
<g><path style="opacity:1" fill="#f9e5cb" d="M 1654.5,1278.5 C 1630.16,1278.33 1605.83,1278.5 1581.5,1279C 1580.26,1279.23 1579.26,1279.73 1578.5,1280.5C 1577.17,1281.17 1576.17,1282.17 1575.5,1283.5C 1574.17,1299.15 1573.5,1315.15 1573.5,1331.5C 1573.35,1348.56 1573.85,1365.56 1575,1382.5C 1576.32,1384.49 1578.15,1385.65 1580.5,1386C 1590.33,1386.17 1600.17,1386.33 1610,1386.5C 1620.19,1386.5 1630.02,1385.83 1639.5,1384.5C 1641.53,1384.66 1643.53,1384.5 1645.5,1384C 1648.44,1381.76 1651.77,1380.43 1655.5,1380C 1659.63,1378.4 1663.29,1376.07 1666.5,1373C 1670.58,1371.53 1674.58,1369.86 1678.5,1368C 1680.02,1361.82 1683.18,1356.65 1688,1352.5C 1688.67,1336.5 1688.67,1320.5 1688,1304.5C 1687.69,1303.23 1687.19,1302.07 1686.5,1301C 1682.53,1297.55 1678.53,1294.38 1674.5,1291.5C 1680,1292.49 1684.33,1295.32 1687.5,1300C 1688.77,1300.31 1689.93,1300.81 1691,1301.5C 1691.67,1319.5 1691.67,1337.5 1691,1355.5C 1688.72,1360.67 1685.89,1365.5 1682.5,1370C 1679.35,1372.7 1675.69,1374.03 1671.5,1374C 1670.26,1375.15 1669.26,1376.49 1668.5,1378C 1663.89,1379.42 1659.56,1381.42 1655.5,1384C 1650.56,1385.49 1645.56,1386.82 1640.5,1388C 1619.45,1388.95 1598.45,1388.62 1577.5,1387C 1575.29,1385.13 1573.46,1382.96 1572,1380.5C 1571.02,1347.44 1571.35,1314.44 1573,1281.5C 1575.29,1279.06 1578.13,1277.56 1581.5,1277C 1593.67,1276.83 1605.83,1276.67 1618,1276.5C 1630.52,1276.5 1642.69,1277.17 1654.5,1278.5 Z"/></g>
<g><path style="opacity:1" fill="#efb366" d="M 1673.5,1366.5 C 1671.49,1368.19 1669.15,1369.53 1666.5,1370.5C 1665.35,1372.15 1664.02,1373.65 1662.5,1375C 1654.69,1378.25 1647.03,1381.42 1639.5,1384.5C 1620.83,1384.67 1602.16,1384.5 1583.5,1384C 1581.94,1383.79 1580.61,1383.29 1579.5,1382.5C 1600.17,1382.67 1620.84,1382.5 1641.5,1382C 1642.42,1381.72 1643.08,1381.22 1643.5,1380.5C 1649.14,1377.52 1655.14,1375.36 1661.5,1374C 1664.33,1369.5 1668.33,1367 1673.5,1366.5 Z"/></g>
<g><path style="opacity:1" fill="#faeddb" d="M 1576.5,1501.5 C 1575.84,1503.49 1574.67,1505.15 1573,1506.5C 1572.67,1539.17 1572.33,1571.83 1572,1604.5C 1571.61,1607.45 1570.11,1609.62 1567.5,1611C 1519.5,1611.67 1471.5,1611.67 1423.5,1611C 1422.75,1610.33 1422.41,1609.5 1422.5,1608.5C 1470.84,1608.83 1519.17,1608.5 1567.5,1607.5C 1569.12,1603.36 1569.95,1599.02 1570,1594.5C 1570.33,1564.83 1570.67,1535.17 1571,1505.5C 1572.19,1504.44 1572.69,1503.1 1572.5,1501.5C 1573.83,1501.5 1575.17,1501.5 1576.5,1501.5 Z"/></g>
<g><path style="opacity:1" fill="#f9e5cb" d="M 1838.5,1590.5 C 1841.8,1593.3 1844.96,1596.3 1848,1599.5C 1848.82,1602.11 1849.32,1604.77 1849.5,1607.5C 1849.35,1609.32 1848.68,1610.82 1847.5,1612C 1795.5,1612.67 1743.5,1612.67 1691.5,1612C 1690.96,1611.28 1690.29,1610.78 1689.5,1610.5C 1688.66,1610.16 1688.33,1609.49 1688.5,1608.5C 1689.76,1608.46 1690.76,1608.96 1691.5,1610C 1743.5,1610.5 1795.5,1610.67 1847.5,1610.5C 1847.67,1607.15 1847.5,1603.82 1847,1600.5C 1843.56,1597.57 1840.72,1594.23 1838.5,1590.5 Z"/></g>
<g><path style="opacity:1" fill="#f5d0a0" d="M 1834.5,1578.5 C 1835.5,1578.41 1836.33,1578.75 1837,1579.5C 1838.7,1586.37 1842.53,1591.7 1848.5,1595.5C 1849.83,1595.5 1850.5,1596.17 1850.5,1597.5C 1851.58,1600.4 1852.24,1603.4 1852.5,1606.5C 1852.36,1608.26 1852.69,1609.93 1853.5,1611.5C 1853.02,1612.48 1852.36,1613.31 1851.5,1614C 1798.17,1614.67 1744.83,1614.67 1691.5,1614C 1690.18,1613.18 1689.51,1612.02 1689.5,1610.5C 1690.29,1610.78 1690.96,1611.28 1691.5,1612C 1743.5,1612.67 1795.5,1612.67 1847.5,1612C 1848.68,1610.82 1849.35,1609.32 1849.5,1607.5C 1849.32,1604.77 1848.82,1602.11 1848,1599.5C 1844.96,1596.3 1841.8,1593.3 1838.5,1590.5C 1836.1,1587.69 1834.77,1584.36 1834.5,1580.5C 1834.5,1579.83 1834.5,1579.17 1834.5,1578.5 Z"/></g>
<g><path style="opacity:1" fill="#f1bc78" d="M 1852.5,1606.5 C 1855.39,1609.92 1855.06,1613.08 1851.5,1616C 1798.17,1616.67 1744.83,1616.67 1691.5,1616C 1690.44,1614.81 1689.1,1614.31 1687.5,1614.5C 1686.83,1612.17 1686.17,1609.83 1685.5,1607.5C 1686.39,1608.11 1687.39,1608.44 1688.5,1608.5C 1688.33,1609.49 1688.66,1610.16 1689.5,1610.5C 1689.51,1612.02 1690.18,1613.18 1691.5,1614C 1744.83,1614.67 1798.17,1614.67 1851.5,1614C 1852.36,1613.31 1853.02,1612.48 1853.5,1611.5C 1852.69,1609.93 1852.36,1608.26 1852.5,1606.5 Z"/></g>
<g><path style="opacity:1" fill="#efad5b" d="M 1613.5,1503.5 C 1616.2,1503.93 1618.36,1505.27 1620,1507.5C 1620.18,1510.55 1620.68,1513.55 1621.5,1516.5C 1628.17,1522.17 1634.17,1528.5 1639.5,1535.5C 1631.84,1529.84 1624.84,1523.51 1618.5,1516.5C 1618.78,1513.55 1618.44,1510.72 1617.5,1508C 1605.5,1507.33 1593.5,1507.33 1581.5,1508C 1580.67,1508.83 1579.83,1509.67 1579,1510.5C 1578.67,1542.5 1578.33,1574.5 1578,1606.5C 1576.72,1610 1574.89,1613.17 1572.5,1616C 1522.55,1617.65 1472.55,1617.98 1422.5,1617C 1420.86,1615.87 1419.86,1614.37 1419.5,1612.5C 1420.63,1613.12 1421.63,1613.96 1422.5,1615C 1470.17,1615.67 1517.83,1615.67 1565.5,1615C 1571.22,1614.29 1574.72,1611.12 1576,1605.5C 1576.02,1572.77 1576.69,1540.11 1578,1507.5C 1578.65,1505.28 1580.15,1504.11 1582.5,1504C 1592.83,1503.5 1603.16,1503.33 1613.5,1503.5 Z"/></g>
<g><path style="opacity:1" fill="#eda64c" d="M 1850.5,1597.5 C 1852.23,1601.3 1854.4,1604.97 1857,1608.5C 1857.67,1611.17 1857.67,1613.83 1857,1616.5C 1855.39,1617.15 1853.89,1617.98 1852.5,1619C 1798.18,1618.74 1743.84,1618.41 1689.5,1618C 1688.18,1617.18 1687.51,1616.02 1687.5,1614.5C 1689.1,1614.31 1690.44,1614.81 1691.5,1616C 1744.83,1616.67 1798.17,1616.67 1851.5,1616C 1855.06,1613.08 1855.39,1609.92 1852.5,1606.5C 1852.24,1603.4 1851.58,1600.4 1850.5,1597.5 Z"/></g>
<g><path style="opacity:0.047" fill="#e96c06" d="M 1230.5,1732.5 C 1225.36,1730.54 1222.36,1726.87 1221.5,1721.5C 1222.4,1720.79 1222.74,1719.79 1222.5,1718.5C 1224.2,1718.34 1225.87,1718.51 1227.5,1719C 1226.99,1721.72 1226.99,1724.55 1227.5,1727.5C 1229.36,1727.46 1230.69,1728.29 1231.5,1730C 1229.38,1730.34 1229.05,1731.18 1230.5,1732.5 Z"/></g>
<g><path style="opacity:0.075" fill="#db5b02" d="M 2050.5,1721.5 C 2049.82,1725.19 2048.32,1728.52 2046,1731.5C 2043.07,1732.27 2040.91,1733.94 2039.5,1736.5C 2034.52,1734.69 2034.35,1732.35 2039,1729.5C 2040.84,1730.83 2041.34,1730.67 2040.5,1729C 2041.77,1728.69 2042.93,1728.19 2044,1727.5C 2044.33,1727.83 2044.67,1728.17 2045,1728.5C 2046.65,1727.11 2047.15,1725.61 2046.5,1724C 2047.74,1722.92 2049.07,1722.08 2050.5,1721.5 Z"/></g>
<g><path style="opacity:0.133" fill="#f08006" d="M 2013.5,1747.5 C 1762.83,1747.5 1512.17,1747.5 1261.5,1747.5C 1262.81,1746.77 1264.14,1745.93 1265.5,1745C 1265.04,1744.59 1264.71,1744.09 1264.5,1743.5C 1272.98,1742.56 1281.48,1741.89 1290,1741.5C 1308.5,1741.56 1327,1741.9 1345.5,1742.5C 1477.83,1741.69 1610.16,1741.19 1742.5,1741C 1739.5,1740.67 1736.5,1740.33 1733.5,1740C 1737.17,1739.33 1740.83,1739.33 1744.5,1740C 1743.55,1740.72 1743.38,1741.55 1744,1742.5C 1744.89,1741.92 1745.89,1741.59 1747,1741.5C 1749.95,1741.59 1750.12,1742.09 1747.5,1743C 1749.83,1743.17 1752.17,1743.33 1754.5,1743.5C 1759.69,1741.9 1766.36,1741.07 1774.5,1741C 1771.17,1740.67 1767.83,1740.33 1764.5,1740C 1766.67,1739.83 1768.83,1739.67 1771,1739.5C 1785.17,1742.14 1799.34,1742.14 1813.5,1739.5C 1815.5,1739.67 1817.5,1739.83 1819.5,1740C 1819.17,1740.33 1818.83,1740.67 1818.5,1741C 1833.5,1741.67 1848.5,1741.67 1863.5,1741C 1855.5,1740.67 1847.5,1740.33 1839.5,1740C 1844,1739.83 1848.5,1739.67 1853,1739.5C 1882.81,1741.43 1912.64,1741.93 1942.5,1741C 1942.17,1740.67 1941.83,1740.33 1941.5,1740C 1946.5,1739.33 1951.5,1739.33 1956.5,1740C 1955.04,1740.42 1954.54,1741.26 1955,1742.5C 1965.78,1741.2 1976.62,1741.2 1987.5,1742.5C 1988.67,1742.08 1989.67,1741.41 1990.5,1740.5C 1994.03,1741.13 1997.53,1741.8 2001,1742.5C 2004.5,1741.48 2007.84,1740.81 2011,1740.5C 2011.37,1741.42 2011.87,1742.25 2012.5,1743C 2011.69,1743.31 2011.03,1743.81 2010.5,1744.5C 2011.34,1745.73 2012.34,1746.73 2013.5,1747.5 Z"/></g>
<g><path style="opacity:0.009" fill="#ff1b00" d="M 1242.5,1743.5 C 1245.83,1743.5 1249.17,1743.5 1252.5,1743.5C 1252.5,1744.5 1252.5,1745.5 1252.5,1746.5C 1249.48,1746.66 1246.48,1746.5 1243.5,1746C 1242.75,1745.33 1242.41,1744.5 1242.5,1743.5 Z"/></g>
<g><path style="opacity:0.051" fill="#db8c00" d="M 1362.5,1743.5 C 1486.17,1743.17 1609.84,1743.5 1733.5,1744.5C 1671.67,1744.83 1609.83,1745.17 1548,1745.5C 1485.83,1745.5 1424,1744.83 1362.5,1743.5 Z"/></g>
<g><path style="opacity:0.983" fill="#eb9221" d="M 1839.5,1998.5 C 1839.5,2003.17 1839.5,2007.83 1839.5,2012.5C 1839.67,2022.17 1839.5,2031.84 1839,2041.5C 1838.29,2042.97 1837.12,2043.64 1835.5,2043.5C 1835.67,2047.18 1835.5,2050.85 1835,2054.5C 1834.59,2054.96 1834.09,2055.29 1833.5,2055.5C 1832.83,2058.83 1832.17,2062.17 1831.5,2065.5C 1830.83,2065.83 1830.17,2066.17 1829.5,2066.5C 1828.69,2068.77 1828.19,2071.1 1828,2073.5C 1823.45,2079.67 1819.79,2086.34 1817,2093.5C 1815.32,2094.6 1814.16,2096.1 1813.5,2098C 1812.55,2098.48 1811.55,2098.65 1810.5,2098.5C 1810.66,2099.87 1810.49,2101.21 1810,2102.5C 1808.34,2103.82 1807.17,2105.48 1806.5,2107.5C 1805.68,2108.39 1804.68,2108.72 1803.5,2108.5C 1803.65,2109.55 1803.48,2110.55 1803,2111.5C 1800.39,2113.86 1797.89,2116.36 1795.5,2119C 1794.55,2119.48 1793.55,2119.65 1792.5,2119.5C 1792.5,2120.5 1792.5,2121.5 1792.5,2122.5C 1791.45,2122.35 1790.45,2122.52 1789.5,2123C 1785.09,2126.32 1780.93,2129.82 1777,2133.5C 1775.23,2134.23 1773.4,2134.57 1771.5,2134.5C 1771.5,2135.5 1771.5,2136.5 1771.5,2137.5C 1764.08,2140.73 1756.75,2144.23 1749.5,2148C 1747.19,2148.5 1744.86,2148.66 1742.5,2148.5C 1742.64,2150.12 1741.97,2151.29 1740.5,2152C 1737.45,2152.18 1734.45,2152.68 1731.5,2153.5C 1730.29,2155.07 1728.62,2155.9 1726.5,2156C 1697.52,2157.58 1668.52,2157.91 1639.5,2157C 1635.47,2156.7 1631.47,2156.2 1627.5,2155.5C 1626.09,2155.13 1625.09,2154.3 1624.5,2153C 1621.5,2152.67 1618.5,2152.33 1615.5,2152C 1614.83,2151 1614.17,2150 1613.5,2149C 1610.83,2148.67 1608.17,2148.33 1605.5,2148C 1602.92,2145.77 1599.92,2144.6 1596.5,2144.5C 1596.5,2143.5 1596.5,2142.5 1596.5,2141.5C 1594.8,2141.66 1593.13,2141.49 1591.5,2141C 1587.8,2138.15 1583.8,2135.81 1579.5,2134C 1571.58,2128.75 1564.25,2122.75 1557.5,2116C 1556.66,2114.99 1556.33,2113.82 1556.5,2112.5C 1555.32,2112.72 1554.32,2112.39 1553.5,2111.5C 1539.22,2095.08 1528.38,2076.75 1521,2056.5C 1521.25,2051.32 1519.92,2046.65 1517,2042.5C 1516.67,2036.83 1516.33,2031.17 1516,2025.5C 1514.96,2024.38 1514.29,2023.04 1514,2021.5C 1513.33,2011.17 1513.33,2000.83 1514,1990.5C 1514.42,1989.33 1515.09,1988.33 1516,1987.5C 1516.33,1981.83 1516.67,1976.17 1517,1970.5C 1517.25,1968.34 1518.25,1966.67 1520,1965.5C 1520.33,1962.17 1520.67,1958.83 1521,1955.5C 1523.24,1952.56 1524.57,1949.23 1525,1945.5C 1529.03,1936.57 1533.53,1927.9 1538.5,1919.5C 1539.5,1919.5 1540.5,1919.5 1541.5,1919.5C 1541.7,1915.26 1543.37,1911.76 1546.5,1909C 1547.45,1908.52 1548.45,1908.35 1549.5,1908.5C 1549.35,1907.45 1549.52,1906.45 1550,1905.5C 1551.5,1904.67 1552.67,1903.5 1553.5,1902C 1554.45,1901.52 1555.45,1901.35 1556.5,1901.5C 1556.35,1900.45 1556.52,1899.45 1557,1898.5C 1558.5,1897.67 1559.67,1896.5 1560.5,1895C 1561.45,1894.52 1562.45,1894.35 1563.5,1894.5C 1563.17,1891.5 1564.5,1890.17 1567.5,1890.5C 1567.35,1889.45 1567.52,1888.45 1568,1887.5C 1569.9,1886.84 1571.4,1885.68 1572.5,1884C 1574.13,1883.51 1575.8,1883.34 1577.5,1883.5C 1577.38,1880.09 1579.05,1878.76 1582.5,1879.5C 1582.5,1878.5 1582.5,1877.5 1582.5,1876.5C 1585.6,1877.03 1587.94,1876.03 1589.5,1873.5C 1593.91,1872.1 1598.25,1870.6 1602.5,1869C 1603.34,1867.99 1603.67,1866.82 1603.5,1865.5C 1608.14,1866.26 1612.14,1865.1 1615.5,1862C 1619.29,1862.09 1622.63,1861.09 1625.5,1859C 1630.15,1858.5 1634.82,1858.33 1639.5,1858.5C 1639.33,1857.18 1639.66,1856.01 1640.5,1855C 1665.17,1854.33 1689.83,1854.33 1714.5,1855C 1719.59,1858.14 1725.26,1859.31 1731.5,1858.5C 1731.5,1859.5 1731.5,1860.5 1731.5,1861.5C 1734.52,1861.34 1737.52,1861.5 1740.5,1862C 1741.97,1862.71 1742.64,1863.88 1742.5,1865.5C 1745.19,1865.34 1747.85,1865.5 1750.5,1866C 1751.83,1866.67 1752.83,1867.67 1753.5,1869C 1758.08,1870.54 1762.74,1872.04 1767.5,1873.5C 1767.5,1874.5 1767.5,1875.5 1767.5,1876.5C 1768.83,1876.5 1770.17,1876.5 1771.5,1876.5C 1771.5,1877.5 1771.5,1878.5 1771.5,1879.5C 1773.53,1879.34 1775.53,1879.5 1777.5,1880C 1778.34,1881.01 1778.67,1882.18 1778.5,1883.5C 1779.83,1883.5 1781.17,1883.5 1782.5,1883.5C 1782.5,1884.5 1782.5,1885.5 1782.5,1886.5C 1784.5,1886.83 1786.5,1887.17 1788.5,1887.5C 1788.5,1888.5 1788.5,1889.5 1788.5,1890.5C 1791.5,1890.17 1792.83,1891.5 1792.5,1894.5C 1793.83,1894.5 1795.17,1894.5 1796.5,1894.5C 1796.5,1895.5 1796.5,1896.5 1796.5,1897.5C 1798.83,1898.83 1801.17,1900.17 1803.5,1901.5C 1803.35,1902.55 1803.52,1903.55 1804,1904.5C 1808.22,1907 1810.39,1910.67 1810.5,1915.5C 1811.83,1915.5 1813.17,1915.5 1814.5,1915.5C 1814.5,1916.83 1814.5,1918.17 1814.5,1919.5C 1815.68,1919.28 1816.68,1919.61 1817.5,1920.5C 1818.35,1922.41 1818.68,1924.41 1818.5,1926.5C 1819.5,1926.5 1820.5,1926.5 1821.5,1926.5C 1821.5,1927.83 1821.5,1929.17 1821.5,1930.5C 1822.5,1930.5 1823.5,1930.5 1824.5,1930.5C 1824.47,1933.75 1825.64,1936.42 1828,1938.5C 1827.71,1942.57 1829.04,1945.9 1832,1948.5C 1831.99,1951.65 1832.99,1954.32 1835,1956.5C 1835.5,1960.82 1835.67,1965.15 1835.5,1969.5C 1836.82,1969.33 1837.99,1969.66 1839,1970.5C 1839.5,1979.83 1839.67,1989.16 1839.5,1998.5 Z M 1676.5,1943.5 C 1694.41,1943.35 1709.24,1950.02 1721,1963.5C 1723.33,1966.88 1725.66,1970.21 1728,1973.5C 1730.09,1979.47 1732.09,1985.47 1734,1991.5C 1734.67,2001.17 1734.67,2010.83 1734,2020.5C 1732.45,2027.05 1730.45,2033.39 1728,2039.5C 1725.39,2041.11 1724.06,2043.44 1724,2046.5C 1722,2048.5 1720,2050.5 1718,2052.5C 1717.52,2053.45 1717.35,2054.45 1717.5,2055.5C 1716.45,2055.35 1715.45,2055.52 1714.5,2056C 1713.67,2057.5 1712.5,2058.67 1711,2059.5C 1710.52,2060.45 1710.35,2061.45 1710.5,2062.5C 1708.17,2062.5 1705.83,2062.5 1703.5,2062.5C 1703.5,2063.5 1703.5,2064.5 1703.5,2065.5C 1701.14,2065.67 1698.81,2066.01 1696.5,2066.5C 1696.5,2067.5 1696.5,2068.5 1696.5,2069.5C 1690.62,2069.23 1684.78,2069.57 1679,2070.5C 1673.54,2069.74 1668.04,2069.24 1662.5,2069C 1660.28,2065.96 1657.28,2064.79 1653.5,2065.5C 1653.5,2064.5 1653.5,2063.5 1653.5,2062.5C 1650.76,2062.63 1648.76,2061.46 1647.5,2059C 1645.87,2058.51 1644.2,2058.34 1642.5,2058.5C 1642.5,2057.5 1642.5,2056.5 1642.5,2055.5C 1641.5,2055.5 1640.5,2055.5 1639.5,2055.5C 1639.83,2052.5 1638.5,2051.17 1635.5,2051.5C 1635.66,2049.8 1635.49,2048.13 1635,2046.5C 1631.36,2043.21 1629.03,2039.21 1628,2034.5C 1626.99,2033.66 1625.82,2033.33 1624.5,2033.5C 1624.5,2030.17 1624.5,2026.83 1624.5,2023.5C 1623.5,2023.5 1622.5,2023.5 1621.5,2023.5C 1621.17,2012.48 1621.5,2001.48 1622.5,1990.5C 1623.09,1990.29 1623.59,1989.96 1624,1989.5C 1624.18,1986.45 1624.68,1983.45 1625.5,1980.5C 1626.17,1980.17 1626.83,1979.83 1627.5,1979.5C 1630.02,1973.73 1632.69,1968.07 1635.5,1962.5C 1636.55,1962.65 1637.55,1962.48 1638.5,1962C 1639.33,1960.5 1640.5,1959.33 1642,1958.5C 1642.48,1957.55 1642.65,1956.55 1642.5,1955.5C 1647.14,1955.18 1650.81,1953.18 1653.5,1949.5C 1655.42,1948.69 1657.42,1948.19 1659.5,1948C 1660.34,1946.99 1660.67,1945.82 1660.5,1944.5C 1666.03,1944.82 1671.36,1944.49 1676.5,1943.5 Z"/></g>
<g><path style="opacity:0.977" fill="#eb9221" d="M 535.5,1858.5 C 596.504,1858.17 657.504,1858.5 718.5,1859.5C 718.709,1860.09 719.043,1860.59 719.5,1861C 723.5,1861.33 727.5,1861.67 731.5,1862C 732.973,1862.71 733.64,1863.88 733.5,1865.5C 736.85,1865.33 740.183,1865.5 743.5,1866C 744.337,1867.01 744.67,1868.18 744.5,1869.5C 746.833,1869.5 749.167,1869.5 751.5,1869.5C 751.5,1870.5 751.5,1871.5 751.5,1872.5C 753.833,1872.5 756.167,1872.5 758.5,1872.5C 758.5,1873.83 758.5,1875.17 758.5,1876.5C 760.833,1876.5 763.167,1876.5 765.5,1876.5C 765.5,1877.5 765.5,1878.5 765.5,1879.5C 766.833,1879.5 768.167,1879.5 769.5,1879.5C 769.5,1880.83 769.5,1882.17 769.5,1883.5C 770.833,1883.5 772.167,1883.5 773.5,1883.5C 773.5,1884.5 773.5,1885.5 773.5,1886.5C 776.71,1888.35 779.71,1890.69 782.5,1893.5C 783.246,1894.74 783.579,1896.07 783.5,1897.5C 786.5,1897.17 787.833,1898.5 787.5,1901.5C 788.5,1901.5 789.5,1901.5 790.5,1901.5C 790.5,1903.83 790.5,1906.17 790.5,1908.5C 791.833,1908.5 793.167,1908.5 794.5,1908.5C 793.889,1911.96 795.056,1914.63 798,1916.5C 798.048,1919.33 799.048,1921.66 801,1923.5C 801.173,1927.54 801.673,1931.54 802.5,1935.5C 803.167,1936.17 803.833,1936.83 804.5,1937.5C 805.666,1956.16 805.833,1974.82 805,1993.5C 804,1994.5 803,1995.5 802,1996.5C 801.501,2000.49 801.334,2004.49 801.5,2008.5C 800.5,2008.5 799.5,2008.5 798.5,2008.5C 799.201,2012.82 798.034,2016.49 795,2019.5C 794.667,2021.5 794.333,2023.5 794,2025.5C 792.989,2026.34 791.822,2026.67 790.5,2026.5C 789.626,2029.9 788.459,2033.23 787,2036.5C 785.989,2037.34 784.822,2037.67 783.5,2037.5C 783.649,2038.55 783.483,2039.55 783,2040.5C 778.194,2045.31 773.36,2050.14 768.5,2055C 767.552,2055.48 766.552,2055.65 765.5,2055.5C 765.5,2056.5 765.5,2057.5 765.5,2058.5C 764.5,2058.5 763.5,2058.5 762.5,2058.5C 762.5,2059.83 762.5,2061.17 762.5,2062.5C 763.5,2062.5 764.5,2062.5 765.5,2062.5C 765.373,2065.24 766.54,2067.24 769,2068.5C 769.494,2070.13 769.66,2071.8 769.5,2073.5C 770.675,2073.28 771.675,2073.61 772.5,2074.5C 773.348,2076.41 773.682,2078.41 773.5,2080.5C 774.5,2080.5 775.5,2080.5 776.5,2080.5C 778.612,2083.75 779.945,2087.42 780.5,2091.5C 781.5,2091.5 782.5,2091.5 783.5,2091.5C 783.5,2093.83 783.5,2096.17 783.5,2098.5C 784.833,2098.5 786.167,2098.5 787.5,2098.5C 788.83,2101.7 789.996,2105.04 791,2108.5C 792.011,2109.34 793.178,2109.67 794.5,2109.5C 794.201,2111.6 794.534,2113.6 795.5,2115.5C 798.659,2119.81 801.826,2124.14 805,2128.5C 806.735,2135.07 810.068,2140.74 815,2145.5C 817.058,2149.22 816.891,2152.72 814.5,2156C 777.167,2156.67 739.833,2156.67 702.5,2156C 698.964,2152.97 696.964,2149.13 696.5,2144.5C 693.132,2138.63 689.965,2132.63 687,2126.5C 686.667,2124.5 686.333,2122.5 686,2120.5C 683.858,2117.58 681.858,2114.58 680,2111.5C 679.814,2109.1 679.314,2106.77 678.5,2104.5C 676.375,2101.39 674.541,2098.05 673,2094.5C 672.503,2092.19 672.337,2089.86 672.5,2087.5C 671.178,2087.67 670.011,2087.34 669,2086.5C 668.505,2084.53 668.338,2082.53 668.5,2080.5C 658.167,2080.5 647.833,2080.5 637.5,2080.5C 637.667,2105.17 637.5,2129.84 637,2154.5C 636.5,2155 636,2155.5 635.5,2156C 602.5,2156.67 569.5,2156.67 536.5,2156C 535.263,2155.77 534.263,2155.27 533.5,2154.5C 533.342,2056.68 533.508,1958.68 534,1860.5C 534.717,1859.96 535.217,1859.29 535.5,1858.5 Z M 637.5,1937.5 C 654.513,1937.17 671.513,1937.5 688.5,1938.5C 692.376,1940.87 696.376,1942.87 700.5,1944.5C 703.188,1949.58 705.355,1954.91 707,1960.5C 707.829,1965.86 707.663,1971.2 706.5,1976.5C 705.914,1976.71 705.414,1977.04 705,1977.5C 704.502,1980.82 704.335,1984.15 704.5,1987.5C 703.167,1987.5 701.833,1987.5 700.5,1987.5C 699.199,1989.67 698.199,1992.01 697.5,1994.5C 691.932,1996.59 686.099,1997.92 680,1998.5C 678.393,1998.77 677.226,1999.6 676.5,2001C 663.504,2001.5 650.504,2001.67 637.5,2001.5C 637.5,1980.17 637.5,1958.83 637.5,1937.5 Z"/></g>
<g><path style="opacity:0.975" fill="#eb9221" d="M 829.5,1858.5 C 864.5,1858.5 899.5,1858.5 934.5,1858.5C 934.333,1918.5 934.5,1978.5 935,2038.5C 937.286,2041.36 938.12,2044.7 937.5,2048.5C 938.822,2048.33 939.989,2048.66 941,2049.5C 941.495,2051.47 941.662,2053.47 941.5,2055.5C 942.5,2055.5 943.5,2055.5 944.5,2055.5C 944.5,2056.5 944.5,2057.5 944.5,2058.5C 947.5,2058.17 948.833,2059.5 948.5,2062.5C 949.5,2062.5 950.5,2062.5 951.5,2062.5C 951.5,2063.5 951.5,2064.5 951.5,2065.5C 955.005,2064.89 957.672,2066.06 959.5,2069C 968.72,2070.37 978.053,2070.54 987.5,2069.5C 987.33,2068.18 987.663,2067.01 988.5,2066C 990.591,2064.27 992.924,2063.11 995.5,2062.5C 996.199,2060.01 997.199,2057.67 998.5,2055.5C 999.5,2055.5 1000.5,2055.5 1001.5,2055.5C 1003.36,2049.76 1005.53,2044.09 1008,2038.5C 1008.5,1978.5 1008.67,1918.5 1008.5,1858.5C 1043.41,1858.17 1078.24,1858.5 1113,1859.5C 1113.67,1921.17 1113.67,1982.83 1113,2044.5C 1110.31,2052.18 1108.81,2060.18 1108.5,2068.5C 1107.83,2068.83 1107.17,2069.17 1106.5,2069.5C 1106.11,2075.94 1104.61,2081.94 1102,2087.5C 1101.63,2088.91 1100.8,2089.91 1099.5,2090.5C 1098.68,2095.4 1096.35,2099.4 1092.5,2102.5C 1091.7,2104.08 1091.2,2105.74 1091,2107.5C 1089.99,2108.34 1088.82,2108.67 1087.5,2108.5C 1087.5,2109.83 1087.5,2111.17 1087.5,2112.5C 1086.5,2112.5 1085.5,2112.5 1084.5,2112.5C 1084.83,2115.5 1083.5,2116.83 1080.5,2116.5C 1080.65,2117.55 1080.48,2118.55 1080,2119.5C 1078.06,2121.24 1076.39,2123.24 1075,2125.5C 1070.37,2129.22 1065.87,2133.06 1061.5,2137C 1055.09,2139.93 1048.92,2143.43 1043,2147.5C 1040.23,2148.35 1037.4,2148.68 1034.5,2148.5C 1034.67,2149.82 1034.34,2150.99 1033.5,2152C 1028.79,2152.26 1024.46,2153.59 1020.5,2156C 988.498,2157.99 956.498,2157.99 924.5,2156C 920.624,2153.61 916.29,2152.27 911.5,2152C 906.207,2149.4 900.874,2146.9 895.5,2144.5C 894.614,2143.68 894.281,2142.68 894.5,2141.5C 892.473,2141.66 890.473,2141.5 888.5,2141C 883.494,2137.33 878.494,2133.66 873.5,2130C 868.694,2125.19 863.86,2120.36 859,2115.5C 858.517,2114.55 858.351,2113.55 858.5,2112.5C 857.325,2112.72 856.325,2112.39 855.5,2111.5C 850.035,2104.02 845.202,2096.02 841,2087.5C 841.088,2083.77 839.755,2080.77 837,2078.5C 837.092,2074.71 836.092,2071.37 834,2068.5C 833.83,2062.8 833.33,2057.14 832.5,2051.5C 831.201,2050.91 830.368,2049.91 830,2048.5C 829.5,1985.17 829.333,1921.83 829.5,1858.5 Z"/></g>
<g><path style="opacity:0.975" fill="#eb9221" d="M 1405.5,2152.5 C 1406.5,2106.67 1406.83,2060.67 1406.5,2014.5C 1405.17,2014.5 1403.83,2014.5 1402.5,2014.5C 1402.5,2015.83 1402.5,2017.17 1402.5,2018.5C 1402.66,2020.86 1402.5,2023.19 1402,2025.5C 1400.05,2027.34 1399.05,2029.67 1399,2032.5C 1397.99,2033.34 1396.82,2033.67 1395.5,2033.5C 1395.66,2035.86 1395.5,2038.19 1395,2040.5C 1393.05,2042.34 1392.05,2044.67 1392,2047.5C 1391,2048.5 1390,2049.5 1389,2050.5C 1387.75,2055.58 1386.25,2060.58 1384.5,2065.5C 1383.5,2065.5 1382.5,2065.5 1381.5,2065.5C 1382.11,2068.92 1381.11,2071.58 1378.5,2073.5C 1378.02,2076.18 1377.02,2078.52 1375.5,2080.5C 1375.16,2084.31 1373.83,2087.64 1371.5,2090.5C 1370.53,2092.74 1370.19,2095.08 1370.5,2097.5C 1369.5,2097.5 1368.5,2097.5 1367.5,2097.5C 1367.98,2100.8 1366.98,2103.46 1364.5,2105.5C 1363.69,2107.42 1363.19,2109.42 1363,2111.5C 1361.99,2112.34 1360.82,2112.67 1359.5,2112.5C 1359.66,2115.19 1359.5,2117.85 1359,2120.5C 1357.25,2122.26 1356.08,2124.26 1355.5,2126.5C 1354.27,2126.28 1353.27,2125.61 1352.5,2124.5C 1351.67,2125.5 1350.83,2126.5 1350,2127.5C 1329.65,2127.12 1309.32,2126.12 1289,2124.5C 1285.5,2125.89 1284.67,2124.72 1286.5,2121C 1285.83,2119.67 1285.17,2118.33 1284.5,2117C 1285.17,2116.67 1285.83,2116.33 1286.5,2116C 1284.78,2114.94 1282.95,2114.11 1281,2113.5C 1279.89,2109.72 1279.22,2106.06 1279,2102.5C 1278.55,2104.93 1277.72,2105.1 1276.5,2103C 1276.83,2102.67 1277.17,2102.33 1277.5,2102C 1276.21,2101.51 1274.87,2101.34 1273.5,2101.5C 1266.91,2086.66 1260.08,2071.99 1253,2057.5C 1250.73,2052.33 1248.89,2047 1247.5,2041.5C 1246.52,2041.02 1245.69,2040.36 1245,2039.5C 1243.4,2035.25 1241.9,2030.91 1240.5,2026.5C 1238.48,2023.35 1236.65,2020.01 1235,2016.5C 1234.83,2062.84 1234.33,2109.17 1233.5,2155.5C 1204.21,2156.66 1174.88,2156.82 1145.5,2156C 1144.23,2155.69 1143.07,2155.19 1142,2154.5C 1141.33,2056.17 1141.33,1957.83 1142,1859.5C 1178.76,1858.5 1215.59,1858.17 1252.5,1858.5C 1252.5,1859.83 1252.5,1861.17 1252.5,1862.5C 1253.5,1862.5 1254.5,1862.5 1255.5,1862.5C 1257.15,1867.49 1258.81,1872.49 1260.5,1877.5C 1262.97,1879.97 1263.97,1882.97 1263.5,1886.5C 1264.5,1886.5 1265.5,1886.5 1266.5,1886.5C 1266.5,1889.17 1266.5,1891.83 1266.5,1894.5C 1267.83,1894.5 1269.17,1894.5 1270.5,1894.5C 1270.5,1896.83 1270.5,1899.17 1270.5,1901.5C 1271.68,1901.28 1272.68,1901.61 1273.5,1902.5C 1275.5,1906.68 1277.17,1911.02 1278.5,1915.5C 1279.48,1915.98 1280.31,1916.64 1281,1917.5C 1282.69,1921.7 1284.02,1926.03 1285,1930.5C 1288.12,1933.07 1289.28,1936.4 1288.5,1940.5C 1289.5,1940.5 1290.5,1940.5 1291.5,1940.5C 1291.5,1942.83 1291.5,1945.17 1291.5,1947.5C 1292.82,1947.33 1293.99,1947.66 1295,1948.5C 1295.33,1950.5 1295.67,1952.5 1296,1954.5C 1298.94,1956.33 1300.11,1958.99 1299.5,1962.5C 1300.5,1962.5 1301.5,1962.5 1302.5,1962.5C 1302.5,1964.83 1302.5,1967.17 1302.5,1969.5C 1304.12,1969.36 1305.29,1970.03 1306,1971.5C 1307.69,1975.7 1309.02,1980.03 1310,1984.5C 1313.12,1987.07 1314.28,1990.4 1313.5,1994.5C 1314.82,1994.33 1315.99,1994.66 1317,1995.5C 1317.5,1997.47 1317.66,1999.47 1317.5,2001.5C 1319.33,2002.05 1321,2002.05 1322.5,2001.5C 1323.31,1999.58 1323.81,1997.58 1324,1995.5C 1327.41,1989.6 1330.57,1983.6 1333.5,1977.5C 1335.37,1972.54 1337.03,1967.54 1338.5,1962.5C 1339.5,1962.5 1340.5,1962.5 1341.5,1962.5C 1340.88,1958.99 1341.88,1956.16 1344.5,1954C 1346.21,1949.9 1347.71,1945.73 1349,1941.5C 1350.01,1940.66 1351.18,1940.33 1352.5,1940.5C 1352.34,1938.14 1352.5,1935.81 1353,1933.5C 1354.83,1930.09 1356.67,1926.75 1358.5,1923.5C 1360.37,1918.54 1362.03,1913.54 1363.5,1908.5C 1364.5,1908.5 1365.5,1908.5 1366.5,1908.5C 1367.75,1903.87 1369.09,1899.21 1370.5,1894.5C 1371.5,1894.5 1372.5,1894.5 1373.5,1894.5C 1372.72,1890.4 1373.88,1887.07 1377,1884.5C 1379.41,1875.41 1383.24,1867.07 1388.5,1859.5C 1425.4,1858.17 1462.23,1858.17 1499,1859.5C 1499.67,1957.83 1499.67,2056.17 1499,2154.5C 1497.93,2155.19 1496.77,2155.69 1495.5,2156C 1466.5,2156.67 1437.5,2156.67 1408.5,2156C 1406.94,2155.28 1405.94,2154.11 1405.5,2152.5 Z"/></g>
<g><path style="opacity:0.976" fill="#ea9221" d="M 1857.5,1858.5 C 1887.17,1858.5 1916.83,1858.5 1946.5,1858.5C 1946.5,1859.5 1946.5,1860.5 1946.5,1861.5C 1949.5,1861.17 1950.83,1862.5 1950.5,1865.5C 1951.68,1865.28 1952.68,1865.61 1953.5,1866.5C 1956.5,1869.16 1957.83,1872.5 1957.5,1876.5C 1958.55,1876.35 1959.55,1876.52 1960.5,1877C 1963.18,1880.01 1965.68,1883.18 1968,1886.5C 1968.49,1887.79 1968.66,1889.13 1968.5,1890.5C 1969.5,1890.5 1970.5,1890.5 1971.5,1890.5C 1971.5,1891.83 1971.5,1893.17 1971.5,1894.5C 1972.83,1894.5 1974.17,1894.5 1975.5,1894.5C 1977.83,1899.17 1980.17,1903.83 1982.5,1908.5C 1983.55,1908.35 1984.55,1908.52 1985.5,1909C 1986.16,1910.9 1987.32,1912.4 1989,1913.5C 1989.5,1915.47 1989.66,1917.47 1989.5,1919.5C 1990.83,1919.5 1992.17,1919.5 1993.5,1919.5C 1993.5,1920.5 1993.5,1921.5 1993.5,1922.5C 1994.5,1922.5 1995.5,1922.5 1996.5,1922.5C 1996.5,1923.83 1996.5,1925.17 1996.5,1926.5C 1997.82,1926.33 1998.99,1926.66 2000,1927.5C 2000.5,1929.47 2000.66,1931.47 2000.5,1933.5C 2003.5,1933.17 2004.83,1934.5 2004.5,1937.5C 2005.5,1937.5 2006.5,1937.5 2007.5,1937.5C 2007.66,1939.82 2008.83,1941.49 2011,1942.5C 2011.49,1944.13 2011.66,1945.8 2011.5,1947.5C 2012.5,1947.5 2013.5,1947.5 2014.5,1947.5C 2014.5,1948.83 2014.5,1950.17 2014.5,1951.5C 2017.5,1951.17 2018.83,1952.5 2018.5,1955.5C 2019.5,1955.5 2020.5,1955.5 2021.5,1955.5C 2021.99,1957.81 2022.33,1960.14 2022.5,1962.5C 2023.5,1962.5 2024.5,1962.5 2025.5,1962.5C 2025.5,1963.5 2025.5,1964.5 2025.5,1965.5C 2026.82,1965.33 2027.99,1965.66 2029,1966.5C 2031.17,1968.69 2032.51,1971.36 2033,1974.5C 2036.05,1977 2038.22,1980 2039.5,1983.5C 2040.82,1983.33 2041.99,1983.66 2043,1984.5C 2044.11,1988.09 2045.61,1991.42 2047.5,1994.5C 2048.5,1994.5 2049.5,1994.5 2050.5,1994.5C 2050.5,1995.83 2050.5,1997.17 2050.5,1998.5C 2051.5,1998.5 2052.5,1998.5 2053.5,1998.5C 2053.17,1952.12 2053.51,1905.79 2054.5,1859.5C 2085.49,1858.5 2116.49,1858.17 2147.5,1858.5C 2147.83,1957.5 2147.5,2056.5 2146.5,2155.5C 2117.18,2156.82 2087.85,2156.82 2058.5,2155.5C 2057.27,2152.42 2055.77,2149.42 2054,2146.5C 2051.44,2145.78 2050.28,2144.11 2050.5,2141.5C 2049.5,2141.5 2048.5,2141.5 2047.5,2141.5C 2047.65,2140.45 2047.48,2139.45 2047,2138.5C 2044.19,2135.55 2041.85,2132.22 2040,2128.5C 2037.67,2126.25 2035.33,2123.91 2033,2121.5C 2029.07,2114.88 2024.4,2108.88 2019,2103.5C 2018.67,2102.17 2018.33,2100.83 2018,2099.5C 2014.38,2096.38 2011.04,2093.04 2008,2089.5C 2005.83,2087.31 2004.49,2084.64 2004,2081.5C 2000.42,2078.38 1997.09,2075.05 1994,2071.5C 1992.83,2068.23 1991.33,2065.23 1989.5,2062.5C 1988.32,2062.72 1987.32,2062.39 1986.5,2061.5C 1976.09,2047.61 1965.59,2033.95 1955,2020.5C 1954.83,2065.4 1954.33,2110.24 1953.5,2155C 1937.73,2156.14 1921.9,2156.64 1906,2156.5C 1891.17,2156.33 1876.33,2156.17 1861.5,2156C 1860.23,2155.69 1859.07,2155.19 1858,2154.5C 1857.5,2055.83 1857.33,1957.17 1857.5,1858.5 Z"/></g>
<g><path style="opacity:0.968" fill="#ea9221" d="M 2419.5,2043.5 C 2374.01,2044.14 2328.68,2044.8 2283.5,2045.5C 2283.5,2055.83 2283.5,2066.17 2283.5,2076.5C 2334.74,2076.17 2385.91,2076.5 2437,2077.5C 2437.67,2103.17 2437.67,2128.83 2437,2154.5C 2436.5,2155 2436,2155.5 2435.5,2156C 2350.44,2156.99 2265.44,2156.66 2180.5,2155C 2179.5,2056.24 2179.17,1957.4 2179.5,1858.5C 2264.17,1858.5 2348.83,1858.5 2433.5,1858.5C 2433.83,1884.74 2433.49,1910.91 2432.5,1937C 2382.83,1937.5 2333.17,1937.67 2283.5,1937.5C 2283.5,1946.83 2283.5,1956.17 2283.5,1965.5C 2328.5,1965.33 2373.5,1965.5 2418.5,1966C 2419.49,1991.76 2419.83,2017.59 2419.5,2043.5 Z"/></g>
<g><path style="opacity:0.973" fill="#eb9221" d="M 2444.5,1858.5 C 2477.83,1858.33 2511.17,1858.5 2544.5,1859C 2545.67,1860.17 2546.83,1861.33 2548,1862.5C 2552.33,1870.5 2556.16,1878.83 2559.5,1887.5C 2561.33,1890.17 2563.17,1892.83 2565,1895.5C 2565.01,1898.9 2566.35,1901.57 2569,1903.5C 2569.33,1905.17 2569.67,1906.83 2570,1908.5C 2572.18,1911.35 2574.18,1914.35 2576,1917.5C 2576.33,1919.17 2576.67,1920.83 2577,1922.5C 2579.35,1925.27 2581.35,1928.27 2583,1931.5C 2583.5,1933.47 2583.66,1935.47 2583.5,1937.5C 2584.82,1937.33 2585.99,1937.66 2587,1938.5C 2587.19,1940.58 2587.69,1942.58 2588.5,1944.5C 2590.33,1947.17 2592.17,1949.83 2594,1952.5C 2594.5,1954.47 2594.66,1956.47 2594.5,1958.5C 2595.5,1958.5 2596.5,1958.5 2597.5,1958.5C 2597.99,1960.81 2598.33,1963.14 2598.5,1965.5C 2599.5,1965.5 2600.5,1965.5 2601.5,1965.5C 2601.32,1963.41 2601.65,1961.41 2602.5,1959.5C 2603.32,1958.61 2604.32,1958.28 2605.5,1958.5C 2605.34,1956.47 2605.5,1954.47 2606,1952.5C 2607.01,1951.66 2608.18,1951.33 2609.5,1951.5C 2609.5,1949.17 2609.5,1946.83 2609.5,1944.5C 2610.5,1944.5 2611.5,1944.5 2612.5,1944.5C 2612.5,1942.17 2612.5,1939.83 2612.5,1937.5C 2613.83,1937.5 2615.17,1937.5 2616.5,1937.5C 2616.34,1935.14 2616.5,1932.81 2617,1930.5C 2618.98,1928.64 2620.15,1926.31 2620.5,1923.5C 2621.32,1922.61 2622.32,1922.28 2623.5,1922.5C 2623.5,1920.17 2623.5,1917.83 2623.5,1915.5C 2624.83,1915.5 2626.17,1915.5 2627.5,1915.5C 2627.5,1913.17 2627.5,1910.83 2627.5,1908.5C 2628.5,1908.5 2629.5,1908.5 2630.5,1908.5C 2630.5,1906.17 2630.5,1903.83 2630.5,1901.5C 2631.82,1901.67 2632.99,1901.34 2634,1900.5C 2633.95,1897.37 2634.95,1894.7 2637,1892.5C 2636.88,1889.03 2638.21,1886.37 2641,1884.5C 2642.6,1879.87 2644.27,1875.2 2646,1870.5C 2647.98,1868.64 2649.15,1866.31 2649.5,1863.5C 2650.32,1862.61 2651.32,1862.28 2652.5,1862.5C 2652.5,1861.17 2652.5,1859.83 2652.5,1858.5C 2686.17,1858.5 2719.83,1858.5 2753.5,1858.5C 2753.42,1862.88 2752.92,1867.21 2752,1871.5C 2751,1872.17 2750,1872.83 2749,1873.5C 2749.05,1876.57 2747.88,1878.9 2745.5,1880.5C 2744.19,1884.98 2742.52,1889.31 2740.5,1893.5C 2739.83,1893.83 2739.17,1894.17 2738.5,1894.5C 2737.1,1898.91 2735.6,1903.25 2734,1907.5C 2732.99,1908.34 2731.82,1908.67 2730.5,1908.5C 2730.5,1910.83 2730.5,1913.17 2730.5,1915.5C 2729.5,1915.5 2728.5,1915.5 2727.5,1915.5C 2728.3,1919.17 2727.14,1921.84 2724,1923.5C 2724.22,1926.82 2722.89,1929.16 2720,1930.5C 2718.4,1934.75 2716.9,1939.09 2715.5,1943.5C 2714.83,1943.83 2714.17,1944.17 2713.5,1944.5C 2710.8,1951.29 2707.8,1957.96 2704.5,1964.5C 2703.83,1964.83 2703.17,1965.17 2702.5,1965.5C 2701.17,1969.98 2699.5,1974.32 2697.5,1978.5C 2696.68,1979.39 2695.68,1979.72 2694.5,1979.5C 2694.66,1981.2 2694.49,1982.87 2694,1984.5C 2689.62,1990.58 2686.29,1997.25 2684,2004.5C 2681.11,2005.84 2679.78,2008.18 2680,2011.5C 2678.99,2012.34 2677.82,2012.67 2676.5,2012.5C 2676.5,2014.83 2676.5,2017.17 2676.5,2019.5C 2675.5,2019.5 2674.5,2019.5 2673.5,2019.5C 2674.11,2022.92 2673.11,2025.58 2670.5,2027.5C 2669.98,2030.25 2668.82,2032.58 2667,2034.5C 2667.11,2037.56 2665.94,2039.89 2663.5,2041.5C 2660.85,2048.29 2658.02,2054.96 2655,2061.5C 2653.99,2062.34 2652.82,2062.67 2651.5,2062.5C 2651.83,2093.74 2651.5,2124.91 2650.5,2156C 2616.83,2156.67 2583.17,2156.67 2549.5,2156C 2548.5,2125.91 2548.17,2095.74 2548.5,2065.5C 2547.32,2065.72 2546.32,2065.39 2545.5,2064.5C 2545.15,2061.69 2543.98,2059.36 2542,2057.5C 2541.5,2055.53 2541.34,2053.53 2541.5,2051.5C 2540.18,2051.67 2539.01,2051.34 2538,2050.5C 2537.99,2047.1 2536.65,2044.43 2534,2042.5C 2533.67,2040.83 2533.33,2039.17 2533,2037.5C 2531.36,2034.27 2529.36,2031.27 2527,2028.5C 2524.88,2024.83 2523.38,2020.83 2522.5,2016.5C 2521.83,2016.17 2521.17,2015.83 2520.5,2015.5C 2518.36,2011.08 2517.03,2006.42 2516.5,2001.5C 2515.18,2001.67 2514.01,2001.34 2513,2000.5C 2512.5,1998.53 2512.34,1996.53 2512.5,1994.5C 2511.18,1994.67 2510.01,1994.34 2509,1993.5C 2507.92,1989.35 2506.59,1985.35 2505,1981.5C 2504,1980.83 2503,1980.17 2502,1979.5C 2501.89,1977.03 2500.89,1975.03 2499,1973.5C 2498.51,1971.87 2498.34,1970.2 2498.5,1968.5C 2497.5,1968.5 2496.5,1968.5 2495.5,1968.5C 2495.53,1965.25 2494.36,1962.58 2492,1960.5C 2491.5,1958.53 2491.34,1956.53 2491.5,1954.5C 2490.18,1954.67 2489.01,1954.34 2488,1953.5C 2487.5,1951.53 2487.34,1949.53 2487.5,1947.5C 2486.32,1947.72 2485.32,1947.39 2484.5,1946.5C 2482.5,1942.32 2480.83,1937.98 2479.5,1933.5C 2478.83,1933.17 2478.17,1932.83 2477.5,1932.5C 2476.98,1929.75 2475.82,1927.42 2474,1925.5C 2473.5,1923.53 2473.34,1921.53 2473.5,1919.5C 2472.18,1919.67 2471.01,1919.34 2470,1918.5C 2468.4,1914.25 2466.9,1909.91 2465.5,1905.5C 2463.12,1903.9 2461.95,1901.57 2462,1898.5C 2461,1897.83 2460,1897.17 2459,1896.5C 2458.96,1894.06 2458.13,1892.06 2456.5,1890.5C 2455.53,1888.26 2455.19,1885.92 2455.5,1883.5C 2454.18,1883.67 2453.01,1883.34 2452,1882.5C 2451.67,1880.83 2451.33,1879.17 2451,1877.5C 2447.63,1873.12 2444.63,1868.45 2442,1863.5C 2441.29,1861.04 2442.13,1859.38 2444.5,1858.5 Z"/></g>
<g><path style="opacity:0.012" fill="#ff5600" d="M 535.5,1858.5 C 535.217,1859.29 534.717,1859.96 534,1860.5C 533.508,1958.68 533.342,2056.68 533.5,2154.5C 532.334,2056.33 532.168,1958 533,1859.5C 533.671,1858.75 534.504,1858.41 535.5,1858.5 Z"/></g>
<g><path style="opacity:0.043" fill="#f46a00" d="M 1839.5,1998.5 C 1842.01,2000.24 1843.01,2002.74 1842.5,2006C 1842.33,2007.83 1842.17,2009.67 1842,2011.5C 1841.33,2012.25 1840.5,2012.59 1839.5,2012.5C 1839.5,2007.83 1839.5,2003.17 1839.5,1998.5 Z"/></g>
<g><path style="opacity:0.008" fill="#fe7e00" d="M 1405.5,2152.5 C 1405.5,2107.83 1405.5,2063.17 1405.5,2018.5C 1404.5,2018.5 1403.5,2018.5 1402.5,2018.5C 1402.5,2017.17 1402.5,2015.83 1402.5,2014.5C 1403.83,2014.5 1405.17,2014.5 1406.5,2014.5C 1406.83,2060.67 1406.5,2106.67 1405.5,2152.5 Z"/></g>
<g><path style="opacity:0.008" fill="#fd7f00" d="M 2419.5,2043.5 C 2419.08,2044.22 2418.42,2044.72 2417.5,2045C 2372.83,2045.5 2328.17,2045.67 2283.5,2045.5C 2328.68,2044.8 2374.01,2044.14 2419.5,2043.5 Z"/></g>
<g><path style="opacity:0.094" fill="#f1770e" d="M 1273.5,2101.5 C 1274.87,2101.34 1276.21,2101.51 1277.5,2102C 1277.17,2102.33 1276.83,2102.67 1276.5,2103C 1277.72,2105.1 1278.55,2104.93 1279,2102.5C 1279.22,2106.06 1279.89,2109.72 1281,2113.5C 1282.95,2114.11 1284.78,2114.94 1286.5,2116C 1285.83,2116.33 1285.17,2116.67 1284.5,2117C 1285.17,2118.33 1285.83,2119.67 1286.5,2121C 1284.67,2124.72 1285.5,2125.89 1289,2124.5C 1309.32,2126.12 1329.65,2127.12 1350,2127.5C 1350.83,2126.5 1351.67,2125.5 1352.5,2124.5C 1353.27,2125.61 1354.27,2126.28 1355.5,2126.5C 1353.51,2128.16 1351.18,2129.33 1348.5,2130C 1328.12,2130.95 1307.78,2130.62 1287.5,2129C 1285.6,2126.52 1283.76,2124.02 1282,2121.5C 1279.06,2114.82 1276.22,2108.16 1273.5,2101.5 Z"/></g>
</svg>
